<svg width="1240" height="40" viewBox="0 0 1240 40" fill="none" xmlns="http://www.w3.org/2000/svg">
<g opacity="0.6" clip-path="url(#clip0_2093_21795)">
<g clip-path="url(#clip1_2093_21795)">
<path fill-rule="evenodd" clip-rule="evenodd" d="M89.8096 10.1093C88.9213 10.2951 87.3908 11.9671 87.0923 13.0781C86.7395 14.3912 86.9273 16.3307 87.5198 17.4919C87.7804 18.0029 89.2719 19.7499 90.8343 21.374C93.8093 24.4667 94.446 25.4183 94.446 26.7723C94.446 27.8718 93.461 28.8938 92.4027 28.8925C91.6464 28.8916 90.3474 28.2351 89.8139 27.5843C89.4185 27.102 88.3083 24.7057 88.1243 23.9372C88.0132 23.473 87.8439 23.3246 87.4251 23.3246H86.8725V26.6659C86.8725 30.3433 86.9304 30.4724 88.1185 29.4505C88.8966 28.7813 88.8108 28.786 90.2137 29.3389C92.5702 30.2677 94.2727 29.7908 95.6628 27.8128C96.2825 26.9309 96.3393 26.6975 96.3391 25.0318C96.3389 22.3401 95.7845 21.3172 92.4862 17.9227C89.0057 14.3407 88.176 12.6656 89.3171 11.5244C90.9334 9.90818 93.0589 11.4556 94.1276 15.0272C94.4105 15.9728 94.5705 16.1966 94.963 16.1971C95.441 16.1973 95.4472 16.1521 95.3806 13.1899C95.3189 10.4528 95.2764 10.1824 94.9066 10.1824C94.6832 10.1824 94.3758 10.3327 94.2232 10.5165C93.8744 10.9368 93.4801 10.9386 92.6762 10.523C91.9545 10.1496 90.5714 9.95005 89.8096 10.1093ZM134.67 10.1675C132.832 10.2991 132.249 10.6678 133.267 11.0549C133.567 11.1687 133.876 11.4282 133.954 11.6314C134.032 11.8345 134.095 13.2456 134.095 14.767C134.095 17.3104 133.946 17.9697 133.525 17.2877C133.441 17.1527 133.03 16.8992 132.612 16.7243C131.528 16.2713 130.345 16.6359 129.358 17.7276C128.223 18.9846 127.769 20.5454 127.763 23.2133C127.756 26.0529 128.216 27.6567 129.388 28.8894C130.166 29.7069 130.339 29.7844 131.38 29.7844C132.328 29.7844 132.648 29.6723 133.276 29.1212C134.093 28.4035 134.318 28.441 134.318 29.295C134.318 29.8211 134.363 29.8387 135.352 29.7033C135.92 29.6253 136.722 29.5616 137.134 29.5616C137.734 29.5616 137.882 29.4732 137.882 29.1161C137.882 28.8711 137.743 28.6706 137.572 28.6706C137.401 28.6706 137.201 28.512 137.126 28.3182C137.052 28.1244 136.991 23.9145 136.991 18.9627C136.991 11.8871 136.931 9.96832 136.713 10.0004C136.56 10.0229 135.64 10.0982 134.67 10.1675ZM165.447 10.1234C163.945 10.1911 163.721 10.2543 163.721 10.6132C163.721 10.8609 163.932 11.0781 164.25 11.1578C164.619 11.2505 164.82 11.5011 164.918 11.9893C165.108 12.9416 165.096 17.7559 164.903 17.7559C164.818 17.7559 164.46 17.4803 164.109 17.1433C163.602 16.6582 163.269 16.535 162.509 16.5515C159.952 16.6067 158.407 19.5969 158.666 23.9929C158.734 25.1567 158.951 26.5694 159.149 27.1321C159.969 29.4743 162.234 30.4604 164.009 29.248C164.474 28.9303 164.9 28.6706 164.956 28.6706C165.012 28.6706 165.058 28.9348 165.058 29.2578C165.058 29.828 165.087 29.841 166.091 29.7033C166.659 29.6253 167.511 29.5616 167.985 29.5616C168.678 29.5616 168.844 29.4805 168.844 29.1422C168.844 28.9107 168.646 28.6706 168.401 28.6067C167.969 28.4938 167.957 28.2614 167.9 19.2839C167.85 11.2828 167.798 10.075 167.508 10.0612C167.324 10.0525 166.397 10.0804 165.447 10.1234ZM0 10.5762C0 10.8333 0.18711 11.0705 0.442827 11.1373C0.686292 11.201 0.987005 11.5198 1.11108 11.8459C1.24718 12.2041 1.3365 15.4578 1.3365 20.0598C1.3365 26.5966 1.28727 27.7509 0.989678 28.1754C0.799004 28.4479 0.498292 28.6706 0.321428 28.6706C0.144565 28.6706 0 28.8711 0 29.1161C0 29.5429 0.147683 29.5616 3.50831 29.559C8.49769 29.5552 10.1099 29.023 11.3861 26.9581C11.7948 26.2968 11.9015 25.7992 11.9084 24.5226C11.9162 23.0883 11.8454 22.8161 11.2413 21.956C10.5361 20.9526 8.58968 19.7715 7.62918 19.7644C7.03645 19.76 6.95937 19.3546 7.51781 19.1779C9.35349 18.5974 10.6637 17.5697 11.1239 16.3492C11.4587 15.4611 11.4168 13.6098 11.0459 12.8999C10.5621 11.9737 9.56198 11.1288 8.46138 10.7161C7.72719 10.4408 6.47267 10.3136 3.73106 10.2363C0.114271 10.1343 0 10.1445 0 10.5762ZM35.5186 10.7292C34.8506 11.397 34.8272 11.9432 35.4335 12.7139C36.0719 13.5256 37.2128 13.5256 37.8512 12.7139C38.1052 12.3912 38.313 11.9356 38.313 11.7015C38.313 11.0879 37.3173 10.1824 36.6424 10.1824C36.3249 10.1824 35.8193 10.4285 35.5186 10.7292ZM6.71591 11.314C7.44542 11.7044 7.79625 12.8928 7.79625 14.9733C7.79625 17.8421 6.98187 19.0924 5.11278 19.0924H4.455V15.6542C4.455 11.6356 4.59288 11.0734 5.57788 11.0734C5.95655 11.0734 6.46866 11.1816 6.71591 11.314ZM100.48 12.192C100.147 13.7444 99.2988 15.3286 98.3583 16.1541C97.3822 17.0112 97.3065 17.6966 98.177 17.7969L98.7896 17.8673L98.8259 22.6301C98.8459 25.2496 98.925 27.7262 99.0014 28.1336C99.2021 29.2032 100.05 29.7844 101.411 29.7844C102.389 29.7844 102.61 29.6924 103.243 29.0221C103.956 28.2661 104.247 27.4406 104.247 26.1763C104.247 25.6709 104.157 25.5368 103.857 25.594C103.578 25.6475 103.434 25.9515 103.35 26.6683C103.202 27.9344 103.015 28.2251 102.35 28.2251C101.612 28.2251 101.542 27.6616 101.62 22.3223L101.685 17.8673L102.855 17.8C103.831 17.7438 104.024 17.6628 104.024 17.3104C104.024 16.958 103.831 16.8769 102.855 16.8208L101.685 16.7535L101.623 13.9134C101.566 11.3004 101.527 11.0734 101.14 11.0734C100.816 11.0734 100.665 11.3289 100.48 12.192ZM27.5096 16.7339C26.0034 17.4033 25.2774 19.0906 25.6679 21.0145C25.8924 22.1207 27.0505 23.3489 29.2185 24.7803C30.036 25.32 30.8631 25.9874 31.0562 26.2634C31.5227 26.9292 31.5031 28.0723 31.0179 28.4984C29.501 29.8303 27.3541 28.4205 26.6407 25.6238C26.4324 24.807 26.264 24.5498 25.9379 24.5498C25.5389 24.5498 25.5089 24.7333 25.5071 27.1882C25.5058 28.6392 25.5779 29.8717 25.6672 29.9269C25.7563 29.9824 26.1116 29.8189 26.4565 29.5638C27.0467 29.1275 27.1314 29.1204 27.9019 29.4425C30.3258 30.4551 32.8494 29.0858 33.1289 26.6064C33.357 24.5829 32.5215 23.3478 29.585 21.3671C27.6809 20.0827 27.1755 19.5045 27.1755 18.6099C27.1755 17.9118 27.8845 17.3104 28.7073 17.3104C29.4732 17.3104 30.8304 18.8122 31.2019 20.0709C31.4474 20.9022 31.6015 21.0971 32.0132 21.0971C32.5086 21.0971 32.5215 21.0405 32.5215 18.8627C32.5215 17.0992 32.4522 16.6016 32.1931 16.502C32.0125 16.4327 31.7047 16.5361 31.5089 16.7319C31.0781 17.1627 31.113 17.1625 29.7574 16.7511C28.4498 16.3543 28.3647 16.3537 27.5096 16.7339ZM56.0521 16.7384C52.3039 18.1063 51.3269 25.4356 54.4735 28.5822C56.9941 31.1028 60.8248 29.7193 61.4164 26.0749C61.5251 25.4049 61.4852 25.296 61.1562 25.3623C60.9419 25.4056 60.6396 25.8143 60.4822 26.2741C60.0347 27.5791 59.5321 28.1968 58.7492 28.4053C57.0371 28.8613 56.1278 27.8052 55.9563 25.1623L55.8516 23.5474H58.6975H61.5433L61.4153 21.8551C61.1261 18.0312 58.742 15.7567 56.0521 16.7384ZM65.1067 16.6664C64.7042 16.7829 64.1192 17.2295 63.7702 17.687C63.2349 18.3889 63.1496 18.7046 63.1496 19.9834C63.1496 21.2611 63.2351 21.578 63.7682 22.277C64.1085 22.723 65.0608 23.5592 65.8843 24.1352C68.2802 25.8105 68.8302 26.4064 68.8264 27.3221C68.8224 28.2461 68.6809 28.5062 67.9835 28.8738C66.7147 29.542 64.9601 28.1048 64.2449 25.8114C63.9359 24.8206 63.71 24.4417 63.428 24.4404C63.0785 24.4386 63.0382 24.7128 63.0382 27.0982C63.0382 28.5613 63.1266 29.8127 63.2347 29.8795C63.3429 29.9463 63.6889 29.7986 64.0034 29.5509C64.5404 29.1286 64.626 29.1219 65.3934 29.4427C65.8431 29.6307 66.6632 29.7844 67.2157 29.7844C69.308 29.7844 70.7351 28.0786 70.5687 25.7769C70.4484 24.1132 69.8232 23.2732 67.4872 21.6364C65.703 20.3861 64.5975 19.29 64.5975 18.7712C64.5975 18.6135 64.8053 18.2201 65.0592 17.8973C66.0894 16.5873 67.84 17.5748 68.6849 19.9424C68.9854 20.7837 69.2122 21.0971 69.5202 21.0971C69.9076 21.0971 69.9435 20.9096 69.9435 18.8828C69.9435 16.5252 69.7644 16.1093 69.0333 16.7709C68.6201 17.1447 68.5337 17.1458 67.4128 16.7925C66.0941 16.3768 66.1064 16.3775 65.1067 16.6664ZM73.961 16.9206C72.6354 17.6004 72.1184 18.5894 72.2258 20.24C72.3334 21.8955 72.9635 22.7092 75.5222 24.4976C77.6499 25.9849 78.3097 26.8721 78.0518 27.8997C77.9629 28.2536 77.6277 28.6147 77.1971 28.8201C76.5683 29.1199 76.3999 29.1206 75.6958 28.8265C74.6923 28.4073 73.8238 27.2753 73.3333 25.7473C73.0887 24.9854 72.8098 24.5281 72.5608 24.4805C72.2068 24.4125 72.171 24.6538 72.171 27.0951C72.171 29.4596 72.216 29.7844 72.5432 29.7844C72.7479 29.7844 73.088 29.6282 73.299 29.4373C73.6462 29.123 73.761 29.123 74.5132 29.4373C77.2214 30.5689 79.7404 28.9335 79.7433 26.0422C79.744 25.3931 79.6006 24.5836 79.4248 24.2435C79.021 23.4625 77.69 22.255 76.1408 21.264C74.8892 20.4634 73.7302 19.2648 73.7302 18.7712C73.7302 18.6135 73.938 18.2201 74.192 17.8973C75.2168 16.5942 77.0608 17.6369 77.8976 19.9932C78.1672 20.7516 78.4129 21.0971 78.6831 21.0971C79.0339 21.0971 79.0762 20.845 79.0762 18.7583C79.0762 16.304 78.9577 16.0545 78.142 16.7925C77.7562 17.1418 77.6533 17.1418 76.5455 16.7925C75.0607 16.3245 75.13 16.3211 73.961 16.9206ZM108.256 16.6256C106.447 16.9961 105.361 17.9762 105.361 19.2372C105.361 20.0039 106.19 20.8744 106.92 20.8744C107.511 20.8744 108.479 20.0079 108.479 19.4782C108.479 19.2182 108.215 18.7295 107.892 18.3925L107.305 17.7795L107.865 17.6389C109.58 17.2086 110.253 17.9031 110.258 20.1095L110.261 21.4607L109.037 21.9681C107.585 22.5697 105.641 24.245 105.217 25.2603C105.051 25.6579 104.915 26.4805 104.915 27.0884C104.915 28.0371 105.021 28.306 105.665 28.9889C106.293 29.6545 106.568 29.7844 107.347 29.7844C108.412 29.7844 109.414 29.3358 109.9 28.6417C110.234 28.1652 110.235 28.1656 110.998 28.9745C111.626 29.6407 111.918 29.7844 112.643 29.7844C113.811 29.7844 114.504 29.0618 114.66 27.6821C114.791 26.5133 114.441 26.3026 114.081 27.3341C113.953 27.7017 113.701 28.0024 113.522 28.0024C113.247 28.0024 113.183 27.2452 113.12 23.2689C113.039 18.0994 112.934 17.6597 111.62 16.9939C110.853 16.6049 109.226 16.427 108.256 16.6256ZM141.976 16.6735C140.815 16.9344 139.477 18.0965 139.309 18.9892C139.147 19.8491 139.73 20.5986 140.708 20.7873C141.282 20.8982 141.527 20.8133 142.002 20.3387C142.667 19.6735 142.611 19.0276 141.829 18.3531C141.435 18.0138 141.411 17.9145 141.681 17.7438C141.858 17.6316 142.376 17.5385 142.831 17.5365C143.89 17.5322 144.139 17.976 144.168 19.9172L144.19 21.3887L142.874 22.0541C140.042 23.4852 138.996 24.8159 138.996 26.9862C138.996 28.1489 139.067 28.341 139.753 29.027C140.384 29.6576 140.674 29.7844 141.486 29.7844C142.474 29.7844 143.249 29.4008 143.922 28.5793C144.273 28.1501 144.297 28.1585 145.012 28.9731C145.683 29.7367 145.829 29.8006 146.762 29.7396C147.637 29.6824 147.851 29.5667 148.288 28.9161C148.877 28.04 148.984 26.6659 148.463 26.6659C148.254 26.6659 148.129 26.877 148.129 27.2297C148.129 27.8712 147.516 28.2258 147.219 27.7565C147.11 27.5854 147.02 25.531 147.018 23.1908C147.016 20.7078 146.914 18.6464 146.773 18.2406C146.317 16.933 144.077 16.2013 141.976 16.6735ZM14.6458 16.8067C13.2966 16.8914 12.9362 17.2879 13.792 17.7459C14.1894 17.9586 14.2241 18.3165 14.2941 22.9328C14.3888 29.1907 14.6226 29.7844 16.9923 29.7844C17.7322 29.7844 18.2049 29.6184 18.9003 29.1148C19.4086 28.7464 19.8247 28.3396 19.8247 28.2106C19.8247 28.0817 19.925 28.038 20.0475 28.1137C20.17 28.1895 20.2702 28.6107 20.2702 29.0495V29.8479L21.6395 29.7046C22.3924 29.626 23.2444 29.5616 23.5329 29.5616C24.2227 29.5616 24.2053 29.0419 23.5001 28.5797L22.9432 28.2149V22.3982V16.5815L21.9097 16.7232C21.3414 16.8012 20.4894 16.8649 20.0163 16.8649C19.0547 16.8649 18.8319 17.3438 19.602 17.7559C20.0228 17.9811 20.0475 18.2223 20.0475 22.1144C20.0475 25.2171 19.9675 26.4264 19.7232 27.0107C19.2015 28.2594 17.8902 28.4884 17.4017 27.4161C17.2402 27.0617 17.1517 25.0594 17.1517 21.7549V16.6421L16.5392 16.6842C16.2022 16.7074 15.3501 16.7626 14.6458 16.8067ZM34.916 16.7956C34.3826 16.935 34.4229 17.677 34.9717 17.8205C35.4014 17.9327 35.4172 18.1243 35.4172 23.2133C35.4172 28.3022 35.4014 28.4938 34.9717 28.606C34.7251 28.6706 34.5262 28.9099 34.5262 29.1422C34.5262 29.5275 34.7254 29.5616 36.9765 29.5616C39.1683 29.5616 39.4267 29.5202 39.4267 29.1689C39.4267 28.9531 39.2013 28.6773 38.9255 28.5564C38.4264 28.3374 38.4241 28.3131 38.3649 22.4893L38.3056 16.6421L36.8056 16.668C35.9808 16.6822 35.1306 16.7397 34.916 16.7956ZM41.0417 16.7896C40.6162 16.9613 40.7066 17.3184 41.3201 17.8869L41.877 18.403V23.1059C41.877 27.8035 41.7542 28.6706 41.0896 28.6706C40.91 28.6706 40.7632 28.8711 40.7632 29.1161C40.7632 29.5347 40.9118 29.5616 43.2135 29.5616C45.1465 29.5616 45.6637 29.4968 45.6637 29.2547C45.6637 29.0858 45.4383 28.798 45.1625 28.6152C44.6879 28.3002 44.6573 28.1129 44.5858 25.0705C44.4713 20.2077 44.9418 18.4241 46.3393 18.4241C47.4869 18.4241 47.5511 18.7202 47.6275 24.3606L47.6981 29.5616H49.452C51.3875 29.5616 51.8377 29.295 50.9861 28.653C50.4571 28.2543 50.452 28.2109 50.3415 23.1484C50.2263 17.8713 50.1985 17.716 49.2277 16.9277C48.7722 16.5577 47.1123 16.5729 46.3761 16.9535C46.0449 17.1246 45.5833 17.4754 45.3503 17.7332C44.7507 18.3954 44.55 18.3174 44.55 17.4218V16.6421L42.935 16.6597C42.0467 16.6693 41.1949 16.7279 41.0417 16.7896ZM115.886 16.7896C115.462 16.9607 115.553 17.4886 116.053 17.7559C116.479 17.984 116.498 18.2223 116.498 23.2133C116.498 28.2042 116.479 28.4425 116.053 28.6706C115.808 28.8018 115.607 29.056 115.607 29.2353C115.607 29.5021 116.054 29.5616 118.057 29.5616C120.359 29.5616 120.508 29.5347 120.508 29.1161C120.508 28.8653 120.359 28.6706 120.168 28.6706C119.525 28.6706 119.359 27.5324 119.433 23.6187C119.499 20.1444 119.548 19.7341 119.973 19.1637C120.536 18.4072 121.613 18.2118 122.086 18.7807C122.365 19.1164 122.512 22.7562 122.512 29.2974C122.512 29.4792 123.069 29.5616 124.294 29.5616C125.797 29.5616 126.076 29.5044 126.076 29.1963C126.076 28.9954 125.901 28.7031 125.687 28.5466C125.342 28.2946 125.284 27.6892 125.185 23.2874C125.073 18.2691 125.039 18.0501 124.222 17.1433C123.405 16.2356 121.266 16.5488 120.194 17.7332C119.595 18.3954 119.394 18.3174 119.394 17.4218V16.6421L117.779 16.6597C116.891 16.6693 116.039 16.7279 115.886 16.7896ZM149.855 16.7956C149.282 16.9455 149.381 17.512 150.022 17.7559L150.579 17.9675V23.0912V28.2149L150.022 28.5797C149.716 28.7804 149.465 29.0834 149.465 29.2531C149.465 29.4995 150.026 29.5616 152.25 29.5616C154.778 29.5616 155.034 29.5249 155.034 29.1622C155.034 28.9038 154.778 28.6876 154.31 28.5497L153.586 28.3365L153.523 25.4724C153.458 22.4686 153.657 20.8167 154.258 19.3904L154.617 18.5355L155.067 19.1481C155.942 20.3402 157.93 19.7098 157.93 18.2401C157.93 17.3935 157.101 16.6421 156.167 16.6421C155.438 16.6421 154.43 17.4389 153.766 18.5408C153.538 18.9193 153.499 18.8171 153.488 17.8116L153.475 16.6421L151.86 16.668C150.972 16.6822 150.069 16.7397 149.855 16.7956ZM58.0653 17.8955C58.3302 18.2996 58.4779 19.0917 58.5431 20.4572L58.6378 22.4336H57.287C56.5444 22.4336 55.8904 22.3583 55.8338 22.2666C55.6195 21.9173 56.1225 18.362 56.4591 17.8483C56.9197 17.1451 57.5864 17.1647 58.0653 17.8955ZM133.705 18.8696C134.241 19.9428 134.281 26.552 133.757 27.5647C133.083 28.8675 131.385 28.5474 131.124 27.0684C130.577 23.9731 130.813 19.2205 131.555 18.401C132.2 17.6879 133.227 17.9118 133.705 18.8696ZM164.474 18.713C164.879 19.2572 164.948 19.7245 165.022 22.4038C165.153 27.202 164.616 28.7767 162.987 28.3677C162.033 28.1282 161.828 27.1766 161.828 22.9805C161.828 19.6905 161.882 19.1015 162.231 18.568C162.767 17.7503 163.809 17.8176 164.474 18.713ZM5.80197 19.9834C6.03274 19.9834 6.56399 20.2841 6.98232 20.6514C7.87332 21.4337 8.24241 22.6225 8.24041 24.7041C8.23796 27.5065 7.43027 28.7539 5.70106 28.6256C4.96376 28.5708 4.77999 28.4615 4.65324 28.0024C4.44921 27.2635 4.41134 20.1012 4.61048 19.9023C4.69601 19.8168 4.90451 19.8001 5.07424 19.8651C5.24375 19.9301 5.5712 19.9834 5.80197 19.9834ZM110.261 24.4604C110.261 26.8102 109.873 27.9235 108.975 28.1489C108.163 28.3528 107.811 27.7482 107.811 26.1524C107.811 25.2285 107.95 24.5858 108.275 24.008C108.687 23.2738 109.636 22.4559 110.094 22.4396C110.186 22.4363 110.261 23.3456 110.261 24.4604ZM144.342 24.4471C144.342 26.5973 143.88 27.942 143.073 28.1447C142.159 28.3739 141.777 27.7689 141.8 26.1286C141.815 25.0792 141.948 24.5105 142.322 23.9064C142.813 23.1108 143.842 22.3737 144.174 22.5789C144.266 22.6359 144.342 23.4765 144.342 24.4471Z" fill="#9A8F84"/>
</g>
<line opacity="0.35" x1="197.961" y1="32" x2="197.961" y2="8" stroke="#A39C95"/>
<path fill-rule="evenodd" clip-rule="evenodd" d="M356.567 27.4558C357.787 28.3071 359.772 28.9874 362.1 28.9874C365.647 28.9874 368.341 27.229 368.341 24.0505C368.341 21.5307 367.092 19.9937 364.369 19.0002L361.56 17.9779C360.12 17.4668 359.29 16.9556 359.29 15.6795C359.29 14.2613 360.595 13.5791 362.35 13.5791C364.393 13.5791 365.982 14.3459 367.429 15.451V12.4183C366.039 11.5183 364.25 11 362.294 11C359.088 11 356.421 12.6738 356.421 15.7389C356.421 18.6042 358.18 19.8533 360.507 20.7046L363.026 21.6045C364.587 22.2003 365.467 22.7402 365.467 24.1009C365.467 25.6613 364.078 26.3705 362.091 26.3705C360.07 26.3557 358.115 25.6444 356.558 24.3565L356.567 27.4558ZM338.749 27.4558C339.969 28.3071 341.954 28.9874 344.281 28.9874C347.829 28.9874 350.523 27.229 350.523 24.0505C350.523 21.5307 349.274 19.9937 346.551 19.0002L343.741 17.9779C342.302 17.4668 341.472 16.9556 341.472 15.6795C341.472 14.2613 342.777 13.5791 344.532 13.5791C346.574 13.5791 348.164 14.3459 349.611 15.451V12.4183C348.221 11.5183 346.432 11 344.476 11C341.27 11 338.603 12.6738 338.603 15.7389C338.603 18.6042 340.361 19.8533 342.688 20.7046L345.208 21.6045C346.769 22.2003 347.649 22.7402 347.649 24.1009C347.649 25.6613 346.259 26.3705 344.272 26.3705C342.251 26.3557 340.297 25.6444 338.74 24.3565L338.749 27.4558ZM331.879 11.2988V13.9085H324.215V18.1003H331.087V20.6794H324.215V26.0789H331.877V28.7156H321.325V11.2988H331.879ZM298.631 28.694H301.473V17.3552L313.44 28.9586V11.2682H310.601V22.4091L298.631 11V28.694ZM290.208 11.2952H287.258V28.7174H290.208V11.2952ZM267.89 27.4684C269.11 28.3197 271.095 29 273.422 29C276.97 29 279.664 27.2416 279.664 24.0631C279.664 21.5433 278.415 20.0063 275.692 19.0128L272.882 17.9905C271.443 17.4794 270.613 16.9682 270.613 15.6921C270.613 14.2739 271.918 13.5917 273.673 13.5917C275.715 13.5917 277.305 14.3585 278.752 15.4636V12.4309C277.362 11.5309 275.573 11.0126 273.617 11.0126C270.411 11.0126 267.744 12.6864 267.744 15.7515C267.744 18.6168 269.502 19.8659 271.83 20.7172L274.349 21.6171C275.91 22.2129 276.79 22.7528 276.79 24.1135C276.79 25.6739 275.4 26.3831 273.413 26.3831C271.392 26.3683 269.438 25.657 267.881 24.3691L267.89 27.4684ZM253.961 29C258.131 29 260.941 26.5594 260.941 21.8007V11.2952H257.991V21.4534C257.991 24.801 256.573 26.3615 253.961 26.3615C251.349 26.3615 249.931 24.801 249.931 21.4534V11.2952H246.976V21.7647C246.976 26.5594 249.818 29 253.961 29ZM230.947 21.0556H234.692C236.672 21.0556 237.752 22.0203 237.752 23.6095C237.752 25.17 236.672 26.1635 234.692 26.1635H230.947V21.0556ZM230.947 18.615V13.8491H234.152C236.166 13.8491 237.244 14.5582 237.244 16.2033C237.244 17.8483 236.164 18.615 234.152 18.615H230.947ZM237.813 19.7219C239.089 19.2684 240.083 17.9059 240.083 16.0341C240.083 12.9132 237.813 11.2952 234.181 11.2952H228.078V28.7174H234.737C238.369 28.7174 240.639 26.986 240.639 23.7229C240.643 22.8448 240.373 21.9872 239.867 21.2699C239.36 20.5526 238.642 20.0114 237.813 19.7219Z" fill="#9A8F84"/>
<path d="M383.3 11.2968H380.341V28.7293H383.3V11.2968Z" fill="#9A8F84"/>
<path fill-rule="evenodd" clip-rule="evenodd" d="M391.775 28.7008H394.618V17.3635L406.592 28.9707V11.2682H403.754V22.4134L391.775 11V28.7008Z" fill="#9A8F84"/>
<path fill-rule="evenodd" clip-rule="evenodd" d="M414.192 24.3687C415.747 25.6586 417.699 26.3717 419.719 26.3872C421.712 26.3872 423.1 25.6787 423.1 24.115C423.1 22.7524 422.212 22.2179 420.654 21.6182L418.133 20.7122C415.81 19.8588 414.044 18.6086 414.044 15.7403C414.044 12.6709 416.718 11.0021 419.916 11.0021C421.875 11.0021 423.661 11.5112 425.057 12.4172V15.4612C423.607 14.3505 422.018 13.5859 419.983 13.5859C418.227 13.5859 416.914 14.2654 416.914 15.6805C416.914 16.9615 417.738 17.4725 419.188 17.9871L421.996 19.0072C424.714 19.9983 425.966 21.5439 425.966 24.0625C425.966 27.2442 423.266 29 419.722 29C417.394 29 415.415 28.3241 414.196 27.4743L414.192 24.3687Z" fill="#9A8F84"/>
<path d="M436.577 11.2968H433.622V28.7293H436.577V11.2968Z" fill="#9A8F84"/>
<path fill-rule="evenodd" clip-rule="evenodd" d="M445.218 11.2968H451.89C457.028 11.2968 460.352 14.7032 460.352 20.0085C460.352 25.3139 457.028 28.7293 451.89 28.7293H445.213L445.218 11.2968ZM451.783 26.0912C455.439 26.0912 457.4 23.7357 457.4 20.0085C457.4 16.2578 455.445 13.9077 451.783 13.9077H448.159V26.0912H451.783Z" fill="#9A8F84"/>
<path fill-rule="evenodd" clip-rule="evenodd" d="M477.158 11.2968V13.9077H469.494V18.1024H476.368V20.6826H469.494V26.0912H477.158V28.7293H466.6V11.2968H477.158Z" fill="#9A8F84"/>
<path fill-rule="evenodd" clip-rule="evenodd" d="M488.937 21.6556V28.7221H485.991V11.2968H492.296C495.897 11.2968 498.223 13.1087 498.223 16.5224C498.223 19.4414 496.931 21.1174 494.177 21.5468L500.45 28.7275H497.098L491.034 21.661L488.937 21.6556ZM488.937 19.1895H492.248C494.208 19.1895 495.313 18.1368 495.313 16.5224C495.313 14.9079 494.208 13.8534 492.248 13.8534H488.937V19.1895Z" fill="#9A8F84"/>
<line opacity="0.35" x1="529.567" y1="32" x2="529.567" y2="8" stroke="#A39C95"/>
<g clip-path="url(#clip2_2093_21795)">
<path fill-rule="evenodd" clip-rule="evenodd" d="M611.131 8.10015C610.003 8.5116 609.418 9.38851 609.513 10.526C609.702 12.8079 612.492 13.5085 613.754 11.5911C614.068 11.1136 614.108 10.9394 614.067 10.2357C614.029 9.59628 613.941 9.3258 613.645 8.93714C613.069 8.18262 611.938 7.80582 611.131 8.10015ZM693.603 8.21016C692.672 8.57549 692.222 9.28311 692.222 10.3803C692.222 11.0188 692.289 11.2786 692.556 11.671C693.22 12.6487 694.456 12.9457 695.582 12.3983C696.383 12.0091 696.91 11.0135 696.788 10.1197C696.68 9.33146 696.222 8.65902 695.578 8.34388C694.776 7.95114 694.339 7.9215 693.603 8.21016ZM631.849 8.68129C631.64 8.79472 631.486 8.98931 631.486 9.14135C631.486 9.29154 631.359 9.45623 631.19 9.52408L630.893 9.64318L631.19 9.65161C631.353 9.65609 631.486 9.72276 631.486 9.79943C631.486 9.87611 631.539 9.90628 631.604 9.86623C631.672 9.82433 631.678 9.98823 631.618 10.2537C631.555 10.5304 631.564 10.7139 631.64 10.7139C631.709 10.7139 631.737 10.759 631.703 10.8142C631.669 10.8694 631.732 11.0323 631.844 11.1765C632.039 11.4297 632.043 11.4273 631.952 11.1091C631.901 10.928 631.871 10.6019 631.887 10.3845C631.902 10.1671 631.924 9.84107 631.935 9.65991C631.946 9.47876 632.001 9.2565 632.058 9.16586C632.114 9.07535 632.124 8.94254 632.08 8.87087C632.036 8.79933 632.077 8.75994 632.171 8.78352C632.265 8.80698 632.298 8.80131 632.243 8.77075C632.188 8.74018 632.177 8.661 632.218 8.59473C632.314 8.43848 632.282 8.44612 631.849 8.68129ZM637.645 8.6967C637.519 8.7299 637.415 8.83978 637.415 8.94083C637.415 9.05809 637.494 9.09419 637.634 9.04056C637.794 8.97904 637.827 9.00657 637.756 9.14346C637.703 9.24636 637.746 9.22448 637.852 9.09484C638.029 8.87799 638.061 8.87614 638.257 9.07126C638.373 9.18799 638.469 9.2291 638.469 9.1627C638.469 9.0374 638.029 8.59433 637.931 8.62121C637.901 8.62964 637.772 8.66363 637.645 8.6967ZM559.684 8.84834C559.684 8.90908 560.113 9.03187 560.639 9.12106C561.164 9.21026 561.772 9.32567 561.989 9.37771L562.384 9.47217L562.418 20.0876L562.452 30.7032L561.891 30.9061C561.583 31.0177 560.945 31.1658 560.474 31.2353C559.842 31.3285 561.103 31.3662 565.283 31.379C571.241 31.3973 572.017 31.3436 573.59 30.8048C575.279 30.2263 576.522 29.3243 577.25 28.1494C577.624 27.546 578.128 25.7545 578.128 25.0302C578.128 24.3505 577.752 23.0016 577.356 22.2576C576.42 20.5018 574.306 19.3057 571.505 18.946C570.717 18.8447 570.799 18.6812 571.699 18.5619C572.08 18.5114 572.451 18.4227 572.526 18.365C572.6 18.3072 572.839 18.2177 573.056 18.1663C573.822 17.9852 575.144 17.239 575.748 16.6477C576.598 15.8148 576.859 15.2116 576.917 13.9417C577.057 10.8775 574.873 9.23344 570.177 8.86811C568.189 8.71343 559.684 8.69736 559.684 8.84834ZM629.84 8.86798C629.794 8.94254 629.847 8.96468 629.964 8.91975C630.192 8.83214 630.234 8.73768 630.045 8.73768C629.977 8.73768 629.885 8.7963 629.84 8.86798ZM672.987 8.84387C672.987 8.90223 673.514 9.02818 674.158 9.12357C674.802 9.21908 675.41 9.34688 675.508 9.40775C675.657 9.49931 675.694 11.3437 675.724 20.0581L675.76 30.5978L675.432 30.8123C675.252 30.9303 674.613 31.1037 674.013 31.1975C673.052 31.3477 673.908 31.3699 681.171 31.3832L689.421 31.3983L689.504 30.7725C689.592 30.1101 690.21 24.9387 690.335 23.8228C690.416 23.0964 690.27 23.1236 689.983 23.8887C689.793 24.3957 688.493 27.0923 688.236 27.5118C687.732 28.3364 686.601 29.7256 686.102 30.135C684.997 31.0401 684.462 31.1979 682.604 31.168C681.699 31.1534 680.75 31.0931 680.496 31.0339L680.035 30.9264V20.1943V9.46229L680.694 9.29115C681.056 9.19695 681.812 9.0847 682.374 9.04175C682.935 8.99867 683.395 8.91277 683.395 8.85058C683.395 8.78853 681.053 8.73768 678.191 8.73768C675.329 8.73768 672.987 8.7855 672.987 8.84387ZM617.389 9.42645V9.98348L617.794 9.49233C618.498 8.63768 618.596 8.77839 618.55 10.5824L618.509 12.1636L618.904 12.1635H619.3L619.256 10.5823C619.215 9.11935 619.23 9.00157 619.453 9.00592C619.586 9.00855 619.858 9.22567 620.057 9.48824L620.419 9.96583V9.41763V8.86942H618.904H617.389V9.42645ZM620.987 8.96165C621.203 9.01764 621.221 9.17034 621.184 10.5935L621.144 12.1636L621.664 12.1634C622.069 12.1631 622.15 12.1279 622.027 12.005C621.94 11.9181 621.869 11.5624 621.869 11.2145V10.5821H622.605H623.341L623.297 11.3729L623.252 12.1636H623.647H624.042L624.002 10.5926C623.962 9.04188 623.965 9.02067 624.265 8.96336C624.433 8.93148 624.154 8.90526 623.647 8.90526C623.14 8.90526 622.858 8.93095 623.021 8.96244C623.285 9.01329 623.318 9.09774 623.318 9.73501V10.4504H622.593H621.869V9.78744C621.869 9.22304 621.913 9.1067 622.165 9.00526C622.385 8.91672 622.241 8.88787 621.605 8.89301C621.134 8.89683 620.856 8.92779 620.987 8.96165ZM624.917 8.9573C625.035 8.98892 625.169 9.19695 625.213 9.4196C625.355 10.1303 625.304 11.8367 625.136 12.005C625.013 12.1279 625.086 12.1631 625.465 12.1631H625.953V11.3726C625.953 10.6798 625.984 10.5821 626.207 10.5821C626.347 10.5821 626.554 10.6753 626.668 10.7891C626.856 10.9774 626.875 10.9447 626.875 10.4305C626.875 9.88085 626.869 9.87308 626.67 10.1575C626.557 10.3187 626.35 10.4504 626.209 10.4504C625.986 10.4504 625.953 10.3554 625.953 9.71788V8.98523L626.443 9.0262C626.83 9.05848 626.995 9.16085 627.233 9.51473L627.534 9.9624V9.41591V8.86942L626.117 8.88471C625.338 8.89314 624.798 8.92581 624.917 8.9573ZM641.938 8.96231C642.158 9.01922 642.175 9.16256 642.136 10.594L642.092 12.1635L642.496 12.1633L642.899 12.1631L642.842 11.3726L642.785 10.5821H643.471H644.157L644.113 11.3729L644.068 12.1636L644.463 12.1635H644.859L644.814 10.6482C644.771 9.16428 644.776 9.13029 645.078 9.00947C645.314 8.91461 645.188 8.88774 644.529 8.89301C644.058 8.89683 643.777 8.92713 643.903 8.9602C644.087 9.00829 644.134 9.16533 644.134 9.7354V10.4504H643.475H642.817V9.79825C642.817 9.31605 642.877 9.11105 643.047 9.01171C643.221 8.9104 643.083 8.88023 642.487 8.88866C642.052 8.89485 641.805 8.92805 641.938 8.96231ZM645.821 8.96336C646.121 9.02067 646.125 9.04188 646.085 10.5926L646.044 12.1636H646.505H646.967L646.926 10.5935C646.889 9.17034 646.908 9.01764 647.124 8.96165C647.255 8.92779 646.947 8.90118 646.44 8.90262C645.932 8.90407 645.654 8.93148 645.821 8.96336ZM647.922 9.00526C648.203 9.11816 648.218 9.19642 648.218 10.5055C648.218 11.6817 648.184 11.9065 647.988 12.0208C647.802 12.1287 647.858 12.1559 648.272 12.1592C648.766 12.163 648.777 12.1536 648.562 11.916C648.383 11.7177 648.346 11.4584 648.377 10.6036L648.416 9.53844L649.47 10.9139C650.049 11.6704 650.568 12.2907 650.623 12.2921C650.677 12.2937 650.721 11.6165 650.721 10.7873C650.721 9.37863 650.741 9.26612 651.014 9.07456C651.294 8.87865 651.274 8.87008 650.586 8.88471C650.19 8.89314 649.984 8.92963 650.129 8.96586C650.523 9.06428 650.586 9.2428 650.583 10.2528C650.581 11.305 650.697 11.3583 649.47 9.74489C648.829 8.90223 648.795 8.87917 648.218 8.8826C647.732 8.8855 647.679 8.90763 647.922 9.00526ZM651.676 8.9602C652.002 9.04518 652.078 9.48587 652.015 10.9164L651.961 12.1631H652.329H652.698V10.5821V9.00117L653.06 9.00539C653.586 9.01145 653.89 9.30143 654.032 9.93342C654.215 10.748 654.053 11.5869 653.653 11.9021C653.389 12.1096 653.368 12.1631 653.549 12.1631C653.905 12.1631 654.49 11.6836 654.673 11.2421C654.77 11.0082 654.81 10.5835 654.77 10.2222C654.692 9.53001 654.279 9.08694 653.584 8.94795C653.133 8.85757 651.328 8.86929 651.676 8.9602ZM655.366 8.9602C655.562 9.01171 655.596 9.18483 655.596 10.1437C655.596 11.8654 655.898 12.2949 657.11 12.2949C657.415 12.2949 658.099 11.837 658.099 11.6326C658.099 11.5687 657.954 11.6618 657.776 11.8397C657.392 12.2236 657.092 12.2439 656.664 11.915C656.394 11.7074 656.34 11.5306 656.285 10.676C656.21 9.5059 656.3 9.0432 656.617 8.9602C656.744 8.92713 656.462 8.89999 655.991 8.89999C655.52 8.89999 655.239 8.92713 655.366 8.9602ZM657.667 9.00381C658.005 9.13964 658.082 9.39826 658.139 10.5821C658.178 11.3952 658.181 11.3838 658.206 10.3591C658.228 9.40867 658.266 9.25505 658.524 9.07456C658.804 8.87851 658.785 8.86982 658.096 8.87772C657.537 8.88431 657.44 8.91251 657.667 9.00381ZM630.111 9.17152C630.161 9.30143 630.234 9.37455 630.275 9.33397C630.316 9.29352 630.275 9.1872 630.185 9.09774C630.055 8.96863 630.04 8.98378 630.111 9.17152ZM639.754 9.28509C639.798 9.45557 639.776 9.53712 639.697 9.48864C639.625 9.44437 639.567 9.49338 639.567 9.59773C639.567 9.75082 639.605 9.75609 639.765 9.62487C639.934 9.48679 639.952 9.50708 639.887 9.75872C639.845 9.92183 639.865 10.0552 639.93 10.0552C639.996 10.0552 640.056 9.95147 640.063 9.8246C640.072 9.67085 640.111 9.70378 640.182 9.92341C640.307 10.3146 640.346 9.99376 640.227 9.5499C640.166 9.32027 640.117 9.28693 640.034 9.41815C639.947 9.55425 639.922 9.54371 639.92 9.37125C639.919 9.24873 639.864 9.11527 639.799 9.07469C639.733 9.03398 639.713 9.1287 639.754 9.28509ZM637.064 9.22106C637.112 9.26954 637.048 9.43251 636.921 9.58337C636.691 9.85687 636.691 9.85687 636.984 9.60932C637.243 9.39036 637.282 9.13292 637.056 9.13292C637.012 9.13292 637.015 9.17258 637.064 9.22106ZM638.762 9.36348C638.701 9.49035 638.691 9.80154 638.74 10.0552C638.846 10.5998 638.9 10.4601 638.865 9.73264C638.842 9.24504 638.855 9.22448 639.083 9.40327C639.305 9.57823 639.31 9.57493 639.144 9.36348C639.045 9.23661 638.943 9.13292 638.919 9.13292C638.894 9.13292 638.823 9.23661 638.762 9.36348ZM570.108 9.62236C571.318 10.1615 572.16 11.2136 572.457 12.5584C572.633 13.3537 572.628 14.6294 572.446 15.4833C572.296 16.1824 571.667 17.3079 571.198 17.7164C570.381 18.4271 568.626 19.014 567.317 19.014H566.666V14.1225V9.23081L568.083 9.29089C569.128 9.33515 569.658 9.42198 570.108 9.62236ZM628.227 9.55754C628.216 9.70273 628.248 9.77098 628.298 9.70932C628.349 9.64753 628.44 9.56018 628.5 9.51512C628.56 9.46993 628.528 9.40169 628.428 9.36335C628.314 9.31948 628.239 9.39154 628.227 9.55754ZM630.564 9.39642C630.445 9.47309 630.429 9.52487 630.523 9.52619C630.61 9.52724 630.717 9.46888 630.762 9.39642C630.863 9.23278 630.817 9.23278 630.564 9.39642ZM628.802 9.50155C628.766 9.55939 628.785 9.68429 628.843 9.77914C628.918 9.90022 628.977 9.90812 629.04 9.80576C629.09 9.72552 629.064 9.65991 628.983 9.65991C628.902 9.65991 628.872 9.60063 628.917 9.52816C628.962 9.4557 628.969 9.39642 628.933 9.39642C628.896 9.39642 628.838 9.44371 628.802 9.50155ZM639.04 9.85753C639.04 9.96623 639.083 10.0552 639.135 10.0552C639.188 10.0552 639.265 9.96623 639.307 9.85753C639.351 9.74423 639.31 9.65991 639.211 9.65991C639.117 9.65991 639.04 9.74884 639.04 9.85753ZM628.489 10.0142C628.616 10.0474 628.72 10.1295 628.72 10.1965C628.72 10.2637 628.808 10.3187 628.917 10.3187C629.026 10.3187 629.115 10.2558 629.115 10.1791C629.115 10.1025 629.183 10.0819 629.267 10.1335C629.363 10.1932 629.383 10.1696 629.321 10.0691C629.249 9.95318 629.176 9.94936 629.049 10.0552C628.928 10.1552 628.848 10.1571 628.789 10.0616C628.742 9.98559 628.604 9.93026 628.481 9.93869C628.28 9.95252 628.281 9.9599 628.489 10.0142ZM638.074 9.98006C638.074 10.0163 638.192 10.1093 638.337 10.1869C638.482 10.2645 638.601 10.2982 638.601 10.262C638.601 10.2258 638.482 10.1328 638.337 10.0552C638.192 9.97756 638.074 9.94383 638.074 9.98006ZM633.391 10.1959C633.343 10.2733 633.206 10.2994 633.087 10.254C632.912 10.1874 632.902 10.2039 633.035 10.3382C633.169 10.4727 633.244 10.4615 633.426 10.28C633.549 10.1563 633.612 10.0552 633.564 10.0552C633.517 10.0552 633.439 10.1185 633.391 10.1959ZM633.858 10.1714C633.858 10.2438 633.917 10.3397 633.989 10.3845C634.062 10.4293 634.121 10.4067 634.121 10.3342C634.121 10.2617 634.062 10.1658 633.989 10.121C633.917 10.0762 633.858 10.0989 633.858 10.1714ZM629.949 10.4103C629.949 10.5113 630.024 10.5294 630.158 10.4611C630.273 10.4023 630.455 10.3219 630.564 10.2824C630.673 10.2429 630.579 10.2201 630.356 10.2317C630.132 10.2433 629.949 10.3237 629.949 10.4103ZM639.21 10.292C639.174 10.3499 639.199 10.4832 639.266 10.5885C639.361 10.7379 639.388 10.7148 639.389 10.4833C639.391 10.1786 639.324 10.1071 639.21 10.292ZM629.236 10.3516C629.153 10.6242 629.163 10.8456 629.258 10.8456C629.324 10.8456 629.378 10.7271 629.378 10.5821C629.378 10.3703 629.28 10.2101 629.236 10.3516ZM639.594 10.4413C639.553 10.5088 639.569 10.5951 639.63 10.6331C639.692 10.6712 639.742 10.616 639.742 10.5105C639.742 10.2883 639.701 10.269 639.594 10.4413ZM630.215 10.6727C630.347 10.804 630.828 10.8209 630.748 10.6914C630.711 10.6313 630.555 10.5821 630.402 10.5821C630.25 10.5821 630.166 10.6229 630.215 10.6727ZM633.111 10.7798C633.111 10.8746 633.19 10.9219 633.287 10.8849C633.383 10.8478 633.462 10.8005 633.462 10.7798C633.462 10.7591 633.383 10.7118 633.287 10.6746C633.19 10.6376 633.111 10.6849 633.111 10.7798ZM635.834 10.6998C635.834 10.7645 635.931 10.8547 636.05 10.9005C636.231 10.9699 636.239 10.9505 636.1 10.7828C635.91 10.5542 635.834 10.5304 635.834 10.6998ZM630.959 10.9115C630.869 11.0202 630.847 11.1101 630.91 11.1111C630.973 11.1123 630.936 11.1707 630.827 11.2409C630.66 11.3488 630.667 11.3689 630.871 11.3707C631.007 11.3717 631.089 11.3003 631.057 11.2079C631.027 11.1174 631.096 10.9711 631.211 10.8828C631.326 10.7945 631.354 10.7204 631.272 10.7181C631.19 10.7157 631.049 10.8028 630.959 10.9115ZM633.745 10.9369C633.594 11.0982 633.604 11.1206 633.811 11.085C633.992 11.0541 634.044 11.1116 634.011 11.3068C633.978 11.5095 634.004 11.5348 634.125 11.4166C634.248 11.2974 634.243 11.2054 634.103 11.0051C633.946 10.7817 633.898 10.7725 633.745 10.9369ZM635.179 10.9694C635.061 11.1911 635.081 11.2186 635.324 11.1717C635.693 11.1006 635.709 11.0741 635.496 10.8781C635.351 10.7438 635.291 10.7611 635.179 10.9694ZM639.969 10.8671C640.021 11.1307 640.313 11.15 640.311 10.8895C640.31 10.703 640.283 10.6889 640.196 10.8276C640.116 10.9538 640.06 10.9626 640.01 10.8572C639.961 10.755 639.948 10.7582 639.969 10.8671ZM640.84 10.8456C640.84 10.9181 640.9 10.9774 640.972 10.9774C641.045 10.9774 641.104 10.9181 641.104 10.8456C641.104 10.7732 641.045 10.7139 640.972 10.7139C640.9 10.7139 640.84 10.7732 640.84 10.8456ZM628.585 11.1782C628.343 11.47 628.481 11.5036 628.752 11.2189C628.879 11.0861 628.931 10.9774 628.867 10.9774C628.804 10.9774 628.677 11.0678 628.585 11.1782ZM630.408 11.0674C630.503 11.1054 630.616 11.1007 630.66 11.057C630.704 11.0132 630.626 10.9821 630.487 10.9878C630.334 10.9941 630.302 11.0253 630.408 11.0674ZM627.534 11.2539C627.534 11.3335 627.35 11.5707 627.125 11.7809L626.715 12.1631H627.19C627.657 12.1631 627.666 12.1535 627.666 11.6361C627.666 11.3463 627.636 11.1091 627.6 11.1091C627.563 11.1091 627.534 11.1742 627.534 11.2539ZM639.259 11.245C639.259 11.3152 639.348 11.3726 639.457 11.3726C639.566 11.3726 639.655 11.3493 639.655 11.3209C639.655 11.2924 639.566 11.235 639.457 11.1932C639.348 11.1516 639.259 11.1749 639.259 11.245ZM630.138 11.5977C630.31 11.6307 630.399 11.7153 630.348 11.7977C630.295 11.8834 630.321 11.9023 630.414 11.845C630.641 11.7046 630.461 11.5016 630.128 11.5223C629.841 11.5401 629.842 11.5407 630.138 11.5977ZM637.235 11.702C637.194 11.8107 637.211 11.8996 637.273 11.8996C637.336 11.8996 637.421 11.8107 637.463 11.702C637.504 11.5933 637.487 11.5044 637.425 11.5044C637.362 11.5044 637.277 11.5933 637.235 11.702ZM638.961 11.6525C639.05 11.7426 639.156 11.783 639.197 11.7425C639.237 11.7019 639.164 11.6282 639.034 11.5787C638.847 11.5073 638.832 11.5223 638.961 11.6525ZM630.912 11.8338C630.803 11.9424 630.636 12.0323 630.54 12.0334C630.408 12.0349 630.412 12.0646 630.558 12.1564C630.785 12.3 630.91 12.2385 631.095 11.8922C631.259 11.5862 631.184 11.5622 630.912 11.8338ZM639.523 11.8996C639.676 12.186 639.856 12.2382 639.983 12.0328C640.029 11.9583 639.976 11.9361 639.859 11.981C639.727 12.0319 639.655 11.985 639.655 11.8478C639.655 11.7314 639.593 11.6361 639.518 11.6361C639.426 11.6361 639.427 11.721 639.523 11.8996ZM633.265 11.8996C633.161 12.0677 633.299 12.2955 633.503 12.2929C633.606 12.2916 633.598 12.2514 633.479 12.1758C633.379 12.1125 633.338 11.9949 633.387 11.9144C633.437 11.8338 633.448 11.7679 633.412 11.7679C633.376 11.7679 633.31 11.8272 633.265 11.8996ZM635.777 11.8846C635.738 11.9489 635.826 12.0331 635.975 12.072C636.196 12.1297 636.216 12.1087 636.089 11.9551C635.907 11.7359 635.874 11.7285 635.777 11.8846ZM638.732 11.9577C638.732 12.0706 638.792 12.1631 638.864 12.1631C638.937 12.1631 638.996 12.1074 638.996 12.0391C638.996 11.9709 638.937 11.8785 638.864 11.8338C638.792 11.789 638.732 11.8448 638.732 11.9577ZM629.378 12.0314C629.209 12.1405 629.214 12.1594 629.411 12.1611C629.538 12.1622 629.642 12.1038 629.642 12.0314C629.642 11.8706 629.627 11.8706 629.378 12.0314ZM631.574 11.9875C631.388 12.1735 631.502 12.2768 631.881 12.266C632.099 12.2598 632.277 12.2084 632.277 12.1518C632.277 12.0951 632.124 12.0766 631.937 12.1104C631.723 12.1492 631.628 12.1214 631.681 12.0359C631.776 11.8832 631.709 11.8529 631.574 11.9875ZM637.81 12.0314C637.81 12.1038 637.873 12.1631 637.95 12.1631C638.026 12.1631 638.053 12.1038 638.008 12.0314C637.963 11.9589 637.9 11.8996 637.868 11.8996C637.836 11.8996 637.81 11.9589 637.81 12.0314ZM640.24 12.0907C639.993 12.2752 639.994 12.2792 640.28 12.2071C640.443 12.166 640.577 12.08 640.577 12.016C640.577 11.8592 640.538 11.8679 640.24 12.0907ZM629.839 12.1631C629.795 12.2356 629.821 12.2949 629.897 12.2949C629.974 12.2949 630.037 12.2356 630.037 12.1631C630.037 12.0907 630.011 12.0314 629.979 12.0314C629.947 12.0314 629.884 12.0907 629.839 12.1631ZM640.327 15.5376C637.795 15.9612 635.761 17.637 634.668 20.1997C634.085 21.5691 633.937 22.3346 633.93 24.0204C633.925 25.2763 633.982 25.855 634.171 26.4578C634.45 27.3518 635.084 28.7935 635.337 29.1092C635.595 29.433 636.955 30.7891 637.169 30.9372C637.409 31.1037 638.45 31.606 638.798 31.7233C639.397 31.9253 641.055 32.0254 641.875 31.9092C642.663 31.7976 644.089 31.2687 644.262 31.0238C644.3 30.9692 644.523 30.7904 644.758 30.6267C645.608 30.0333 647.43 27.2261 647.262 26.7694C647.218 26.6492 647.149 26.6989 647.057 26.9189C646.738 27.6734 645.899 28.5524 645.058 29.0122C644.261 29.4482 644.125 29.4798 643.016 29.4838C641.983 29.4874 641.728 29.44 641.055 29.1199C639.157 28.2165 638.048 26.199 637.861 23.3081C637.813 22.5612 637.815 21.7285 637.866 21.4577L637.958 20.9653L642.582 21.0623L647.205 21.1593L647.13 20.169C646.956 17.8612 645.434 16.0974 643.241 15.6594C641.731 15.3581 641.466 15.3471 640.327 15.5376ZM723.051 15.5454C721.986 15.7161 720.581 16.2762 719.974 16.7722C718.892 17.6554 717.835 19.0168 717.362 20.1369C716.793 21.4863 716.661 22.2139 716.661 24.0204C716.661 25.9301 716.81 26.6578 717.496 28.1046C717.93 29.0211 717.936 29.0288 718.992 30.1056C720.107 31.2417 721.113 31.7373 722.657 31.91C725.815 32.2632 727.873 31.0015 729.686 27.6016C729.892 27.2164 730.024 26.8655 729.981 26.8222C729.89 26.7317 729.901 26.7199 729.564 27.2651C729.064 28.0733 728.289 28.7921 727.553 29.1307C726.917 29.4233 726.63 29.4731 725.62 29.4661C724.574 29.459 724.341 29.4113 723.643 29.0614C722.773 28.6253 721.905 27.7706 721.474 26.9271C720.866 25.7345 720.664 24.8108 720.586 22.8546L720.511 20.9641L725.133 21.0611L729.756 21.1581L729.836 20.8383C729.961 20.3408 729.692 18.9787 729.329 18.2712C728.632 16.9118 727.454 16.0069 725.947 15.6733C724.58 15.3708 724.235 15.3555 723.051 15.5454ZM601.051 15.5892C599.661 15.7609 598.957 16.1032 597.976 17.0852C597.264 17.7976 596.832 18.8113 596.743 19.9755C596.62 21.6142 596.945 22.5563 597.978 23.5529C598.641 24.1925 598.717 24.2398 600.219 24.942C602.975 26.231 603.467 26.5646 604.03 27.5233C604.568 28.4403 604.401 29.9422 603.656 30.885C603.3 31.3349 602.408 31.6618 601.535 31.6618C600.625 31.6618 599.995 31.4601 599.471 31.0012C599.29 30.8425 599.047 30.6445 598.931 30.5613C598.486 30.2425 596.705 27.1177 596.705 26.655C596.705 26.5828 596.66 26.5236 596.605 26.5236C596.503 26.5236 596.535 30.3177 596.642 30.8199C596.684 31.019 596.916 31.1759 597.46 31.3725C598.682 31.8141 599.892 31.9642 601.697 31.898C603.215 31.8423 603.435 31.8013 604.251 31.4226C605.354 30.9106 606.345 29.9496 606.825 28.9262C607.142 28.2495 607.179 28.019 607.179 26.7213C607.179 25.4454 607.141 25.2013 606.864 24.6806C606.293 23.6099 605.516 23.0301 603.049 21.8338C601.391 21.0296 600.596 20.5644 600.151 20.1376L599.537 19.5494V18.382C599.537 17.3062 599.566 17.1767 599.906 16.7308C600.516 15.9326 601.414 15.6231 602.449 15.855C603.177 16.0182 603.832 16.437 604.184 16.9649C604.331 17.1861 604.911 18.0786 605.473 18.9481C606.035 19.8177 606.522 20.449 606.556 20.3511C606.589 20.2532 606.573 19.1944 606.521 17.9981L606.425 15.8231L605.88 15.9211C605.163 16.0499 605.066 16.0436 604.214 15.8124C603.304 15.5652 601.994 15.4728 601.051 15.5892ZM627.151 15.6078C625.969 15.8007 624.328 16.7926 622.711 18.2908C622.516 18.4712 622.321 18.6189 622.278 18.619C622.234 18.6192 622.228 17.947 622.264 17.1253L622.33 15.6311L621.473 15.8644C621.002 15.9928 620.261 16.1918 619.827 16.3067C619.392 16.4215 618.947 16.5646 618.838 16.6245C618.73 16.6846 618.315 16.8113 617.916 16.9063C617.518 17.0013 617.022 17.15 616.815 17.2369L616.439 17.3947L617.079 17.5556C617.828 17.7438 618.132 17.986 618.388 18.5993C618.665 19.261 618.665 30.7642 618.389 30.9937C618.286 31.0787 617.827 31.197 617.368 31.2566C616.803 31.3298 617.769 31.3649 620.354 31.3649C622.9 31.3649 623.9 31.3292 623.351 31.2579C622.898 31.199 622.469 31.1141 622.396 31.0692C622.311 31.0165 622.264 28.8938 622.264 25.0959C622.264 18.508 622.168 19.1472 623.252 18.4964C623.668 18.2463 624.02 18.1673 624.927 18.12C625.926 18.0678 626.147 18.0977 626.634 18.3515C627.893 19.0076 627.929 19.2124 627.929 25.645C627.929 31.6833 628.055 31.0844 626.743 31.2643C626.313 31.3234 627.6 31.3642 629.905 31.365C632.595 31.3658 633.548 31.3313 633.001 31.2529C632.567 31.1906 632.077 31.0692 631.914 30.9832L631.618 30.8268V25.1423C631.618 21.6043 631.564 19.1645 631.474 18.6812C631.047 16.3667 629.451 15.2327 627.151 15.6078ZM653.224 15.5866C651.329 15.8274 650.048 16.7028 649.268 18.2894C648.984 18.8676 648.944 19.1252 648.943 20.3974C648.943 21.9372 649.106 22.469 649.837 23.3122C650.11 23.6262 651.783 24.8109 651.954 24.8109C652.06 24.8109 653.722 25.555 654.213 25.8224C655.469 26.5059 656.314 27.419 656.454 28.2435C656.783 30.1906 655.593 31.6618 653.69 31.6618C651.967 31.6618 650.816 30.6732 649.487 28.0499C648.719 26.5367 648.37 26.1295 648.531 26.9372C648.577 27.1646 648.653 28.198 648.7 29.2337L648.785 31.1166L649.918 31.4857C650.965 31.8268 651.211 31.855 653.16 31.8571C655.178 31.8593 655.31 31.8431 656.209 31.4818C658.199 30.6825 659.403 28.9038 659.414 26.7467C659.421 25.2229 658.844 24.0729 657.547 23.0253C657.284 22.8136 656.162 22.2335 655.135 21.7787C653.019 20.8421 652.143 20.2697 651.811 19.6069C651.564 19.1149 651.506 18.394 651.658 17.6873C651.958 16.2895 653.253 15.5111 654.701 15.8585C655.048 15.9419 655.333 16.0539 655.333 16.1075C655.333 16.1611 655.472 16.2685 655.642 16.3461C655.889 16.4585 657.572 18.7259 657.572 18.9459C657.572 19.0896 658.609 20.4622 658.648 20.3701C658.672 20.3127 658.674 19.2674 658.653 18.0474L658.614 15.829L657.971 15.9175C657.567 15.973 656.969 15.9315 656.363 15.8056C655.094 15.5419 654.113 15.4734 653.224 15.5866ZM665.344 15.5929C663.476 15.8141 662.091 16.7541 661.372 18.2894C661.104 18.8618 661.064 19.1466 661.066 20.4632C661.069 21.8855 661.092 22.0167 661.439 22.603C661.643 22.9464 662.071 23.4504 662.39 23.7228C662.999 24.2432 663.163 24.3341 665.634 25.5266C667.555 26.4537 668.285 27.1264 668.522 28.1862C668.952 30.1043 667.74 31.6618 665.819 31.6618C664.349 31.6618 663.414 31.0606 662.319 29.4123C662.027 28.9727 661.788 28.5898 661.788 28.5614C661.788 28.4215 660.831 26.5152 660.784 26.562C660.754 26.5918 660.769 27.6287 660.818 28.8664L660.906 31.1168L662.039 31.488C663.096 31.8347 663.317 31.8594 665.345 31.8594C667.361 31.8594 667.572 31.8361 668.244 31.539C669.643 30.9205 670.479 30.137 671.06 28.8992C671.421 28.1311 671.464 27.9045 671.468 26.7871C671.471 25.6765 671.43 25.4503 671.1 24.7789C670.454 23.4626 669.578 22.7802 667.256 21.7841C664.268 20.5021 663.467 19.6452 663.709 17.9859C663.822 17.206 664.026 16.8038 664.539 16.3472C665.49 15.5016 667.321 15.6674 668.193 16.6781C668.521 17.0586 669.034 17.7972 669.034 17.889C669.034 17.9693 670.228 19.8585 670.536 20.2656C670.718 20.5068 670.736 20.4236 670.74 19.2775C670.743 18.5891 670.707 17.5332 670.66 16.9308L670.575 15.8357L670.035 15.9294C669.352 16.0478 669.382 16.0501 668.441 15.8116C667.46 15.5627 666.294 15.4805 665.344 15.5929ZM709.876 15.6118C709.171 15.7189 707.909 16.2855 707.242 16.7943C706.426 17.4166 706.124 17.6624 705.613 18.1212C705.313 18.391 705.023 18.6134 704.968 18.6152C704.913 18.6172 704.907 17.9383 704.955 17.1064L705.041 15.5942L704.132 15.8615C702.352 16.3847 701.5 16.6277 700.72 16.8337C700.285 16.9485 699.826 17.1008 699.701 17.1719C699.575 17.2431 699.367 17.3066 699.239 17.313C699.112 17.3196 699.284 17.4012 699.623 17.4944C700.601 17.764 700.976 18.104 701.156 18.8837C701.389 19.8907 701.368 30.5896 701.133 30.8989C701.026 31.0404 700.648 31.1689 700.116 31.245C699.487 31.3348 700.248 31.3656 703.091 31.3654C705.639 31.3651 706.638 31.3293 706.089 31.2579C705.636 31.199 705.206 31.1141 705.134 31.0692C705.048 31.0165 705.002 28.8727 705.002 25.0325V19.0774L705.298 18.8856C706.257 18.2648 706.787 18.0999 707.836 18.0959C709.146 18.0907 709.655 18.3312 710.206 19.2149L710.601 19.8492L710.636 25.3274C710.655 28.3403 710.623 30.8767 710.566 30.9639C710.508 31.051 710.078 31.1771 709.609 31.244C708.972 31.3351 709.738 31.3659 712.643 31.366C715.32 31.3662 716.284 31.3311 715.739 31.2537C715.304 31.1917 714.815 31.0817 714.652 31.009L714.356 30.877V25.482C714.356 18.3887 714.23 17.5527 712.996 16.4153C712.171 15.6546 711.215 15.4083 709.876 15.6118ZM612.976 15.8522C612.541 15.9862 611.77 16.2237 611.263 16.3801C610.756 16.5365 609.955 16.7714 609.484 16.902C609.013 17.0327 608.482 17.1967 608.304 17.2665C608.002 17.3847 608.025 17.4043 608.633 17.5512C609.503 17.7612 609.871 18.0638 610.016 18.6912C610.161 19.3174 610.182 30.7379 610.038 30.9639C609.983 31.051 609.554 31.1771 609.085 31.244C608.447 31.3351 609.212 31.366 612.119 31.3667C615.506 31.3675 615.879 31.3484 615.018 31.2182L614.03 31.0689L613.996 23.3288C613.977 19.0717 613.918 15.593 613.864 15.5986C613.81 15.6041 613.41 15.7183 612.976 15.8522ZM695.647 15.8833C694.678 16.1697 693.429 16.5271 692.335 16.8317C691.926 16.9456 691.399 17.1195 691.164 17.2184L690.737 17.3981L691.381 17.555C692.385 17.7998 692.623 18.0691 692.757 19.1112C692.82 19.6012 692.874 22.4404 692.876 25.4207C692.88 29.8657 692.848 30.8661 692.699 30.9896C692.599 31.0725 692.17 31.1911 691.744 31.2533C691.21 31.3313 692.152 31.3663 694.791 31.3667C698.067 31.367 698.486 31.3459 697.727 31.218C697.24 31.136 696.781 31.0072 696.707 30.9317C696.619 30.8421 696.56 28.1647 696.538 23.2124L696.504 15.6305L695.647 15.8833ZM642.083 16.1103C642.836 16.5754 643.475 18.3053 643.475 19.8768V20.7267H640.709C639.187 20.7267 637.942 20.6786 637.942 20.6198C637.942 20.2409 638.543 18.3326 638.858 17.7142C639.256 16.9308 639.933 16.1567 640.377 15.9764C640.856 15.7822 641.654 15.8447 642.083 16.1103ZM725.107 16.4524C725.595 16.9764 725.701 17.2037 725.939 18.2409C726.09 18.8945 726.213 19.7211 726.213 20.078V20.7267H723.446C721.084 20.7267 720.68 20.698 720.68 20.5306C720.68 20.1772 721.232 18.2999 721.476 17.8283C722.165 16.4893 722.944 15.8521 723.891 15.8521C724.501 15.8521 724.587 15.8948 725.107 16.4524ZM578.392 16.1156C578.392 16.188 578.703 16.2543 579.083 16.2629C579.464 16.2714 579.953 16.3165 580.17 16.3629L580.566 16.4473L580.634 22.8359L580.702 29.2245L581.048 29.8832C581.473 30.6943 582.244 31.5015 582.823 31.7435C583.341 31.9601 584.89 31.9829 585.519 31.783C586.566 31.4505 587.947 30.5392 589.129 29.3997L589.788 28.7651L589.825 30.4055C589.852 31.6212 589.903 32.0335 590.023 31.9979C590.111 31.9717 591.412 31.5509 592.913 31.0629C595.392 30.2572 596.021 29.9526 595.215 29.9471C594.789 29.9442 593.956 29.6285 593.7 29.3728C593.497 29.1698 593.473 28.5482 593.437 22.5666L593.397 15.9838H590.506C588.666 15.9838 587.614 16.0318 587.614 16.1156C587.614 16.188 587.883 16.2473 588.211 16.2473C589.149 16.2473 589.69 16.5328 589.793 17.0821C589.84 17.3348 589.858 19.9709 589.833 22.9401L589.788 28.3386L589.459 28.6087C588.959 29.019 587.733 29.4221 586.986 29.4221C586.179 29.4221 585.25 29.0477 584.875 28.571C584.336 27.8854 584.278 27.0716 584.364 21.3525L584.444 15.9838H581.418C579.488 15.9838 578.392 16.0315 578.392 16.1156ZM570.407 19.7427C571.78 20.4042 572.76 21.5533 573.347 23.1904C573.707 24.1914 573.665 26.3513 573.265 27.4459C572.53 29.4627 571.259 30.5787 569.235 30.9863C568.506 31.1332 568.378 31.1211 567.588 30.8314L566.732 30.5172L566.698 24.8807L566.663 19.2443L568.147 19.3064C569.432 19.3601 569.735 19.4186 570.407 19.7427Z" fill="#9A8F84"/>
</g>
<line opacity="0.35" x1="759.106" y1="32" x2="759.106" y2="8" stroke="#A39C95"/>
<g clip-path="url(#clip3_2093_21795)">
<path fill-rule="evenodd" clip-rule="evenodd" d="M809.331 19.8841V28.7319H810.94H812.548V23.6377C812.548 20.8359 812.648 18.5436 812.769 18.5436C812.891 18.5436 815.133 20.8963 817.753 23.7718C821.439 27.8184 822.662 29 823.166 29H823.816L823.746 20.2193L823.675 11.4385L821.999 11.3586L820.324 11.279V16.4083C820.324 19.2294 820.218 21.4974 820.089 21.448C819.96 21.399 817.71 19.0364 815.089 16.1976C812.205 13.0748 810.127 11.0364 809.827 11.0364C809.355 11.0364 809.331 11.4568 809.331 19.8841ZM829.419 19.405C827.439 24.0077 825.733 27.9892 825.628 28.2528C825.454 28.6847 825.614 28.7319 827.257 28.7319H829.08L829.595 27.5924L830.11 26.4529L833.528 26.3778L836.946 26.3028L837.536 27.5173L838.126 28.7319H839.815C840.745 28.7319 841.505 28.6415 841.505 28.5308C841.505 28.4201 839.846 24.4413 837.818 19.6884C834.675 12.3204 834.05 11.0466 833.574 11.0417C833.098 11.0372 832.497 12.2469 829.419 19.405ZM843.65 19.8841V28.7319H845.253H846.856L846.928 23.4954L847.001 18.2591L851.914 23.6294C855.045 27.0519 857.014 29 857.343 29C857.843 29 857.86 28.7078 857.86 20.1522V11.3045H856.251H854.642V16.3987C854.642 19.2004 854.552 21.4917 854.441 21.4907C854.33 21.4893 852.076 19.1366 849.432 16.2624C846.576 13.1593 844.425 11.0364 844.136 11.0364C843.676 11.0364 843.65 11.516 843.65 19.8841ZM866.134 11.4565C865.451 11.667 864.312 12.2389 863.603 12.7271C858.049 16.5544 858.864 25.2949 865.04 28.1332C867.076 29.0689 870.484 29.1453 872.338 28.2967C873.731 27.6586 875.044 26.6092 875.831 25.5038L876.381 24.7311L875.13 23.823L873.879 22.9152L872.764 24.0297C869.152 27.6415 863.423 25.2 863.423 20.0488C863.423 17.4649 864.598 15.5761 866.77 14.6688C868.894 13.7811 871.474 14.4058 873.037 16.186L873.866 17.1303L875.134 16.2107L876.401 15.2908L875.749 14.4371C873.565 11.5793 869.664 10.3698 866.134 11.4565ZM891.137 12.1571C887.659 20.1807 884.135 28.4399 884.135 28.5691C884.135 28.6587 884.926 28.7319 885.893 28.7319H887.65L888.184 27.5254L888.718 26.3189H892.164H895.611L896.106 27.5243L896.602 28.73L898.412 28.7308C899.407 28.7313 900.222 28.6992 900.222 28.6592C900.222 28.619 898.542 24.6678 896.488 19.8785C892.349 10.2251 892.119 9.89233 891.137 12.1571ZM998.824 11.2873C996.646 11.9909 995.127 13.8845 995.14 15.8801C995.155 18.2108 996.547 19.7002 1000.36 21.462C1002.72 22.554 1003.18 22.9723 1003.18 24.0399C1003.18 26.5272 998.932 26.5208 997.09 24.0308L996.609 23.3809L995.479 24.2466C994.858 24.7228 994.345 25.2086 994.34 25.3263C994.334 25.4437 994.91 26.1202 995.619 26.8294C997.899 29.1097 1001.29 29.6397 1004.15 28.1651C1006.03 27.1972 1006.71 25.9271 1006.6 23.5769C1006.52 21.9414 1006.43 21.6821 1005.58 20.7925C1005.04 20.2179 1003.61 19.3139 1002.14 18.609C1000.76 17.9475 999.4 17.1797 999.123 16.9024C997.952 15.7316 998.943 14.2537 1000.9 14.2537C1001.89 14.2537 1002.28 14.4133 1003.11 15.1669C1004.2 16.148 1004.07 16.1635 1005.71 14.8591L1006.46 14.258L1005.74 13.3151C1005.35 12.7963 1004.52 12.1158 1003.91 11.8026C1002.68 11.1753 1000.01 10.9047 998.824 11.2873ZM1012.43 11.36C1011.26 11.7675 1009.94 12.8234 1009.48 13.718C1008.97 14.6972 1008.96 17.0024 1009.45 17.9537C1010.08 19.1511 1011.09 19.9136 1013.97 21.3553C1017 22.8696 1017.55 23.5358 1016.86 24.8298C1016.02 26.3894 1013.38 26.2569 1011.51 24.5616C1010.95 24.0536 1010.4 23.6377 1010.3 23.6377C1009.92 23.6377 1008.27 25.0512 1008.27 25.3711C1008.27 25.8985 1010.08 27.6138 1011.28 28.2276C1011.89 28.5378 1013.06 28.8517 1013.88 28.9255C1016.68 29.1761 1018.97 28.1013 1020 26.0588C1020.73 24.6126 1020.76 23.3345 1020.09 21.8639C1019.47 20.4992 1018.41 19.6718 1015.65 18.42C1014.48 17.8856 1013.3 17.2537 1013.04 17.0158C1012.42 16.4563 1012.43 15.2627 1013.05 14.6975C1014.04 13.803 1016.58 14.3334 1017.48 15.6225L1017.88 16.1898L1018.97 15.3109C1019.58 14.8275 1020.07 14.2867 1020.07 14.109C1020.07 13.5322 1017.74 11.6211 1016.68 11.3262C1015.4 10.9718 1013.49 10.9868 1012.43 11.36ZM789.223 20.0182V28.7319H790.965H792.708V25.3805V22.029H795.791H798.875V20.4204V18.8117H795.791H792.708V16.6668V14.5219H796.596H800.483V12.9132V11.3045H794.853H789.223V20.0182ZM802.36 20.0182V28.7319H804.103H805.846V20.0182V11.3045H804.103H802.36V20.0182ZM878.773 20.0182V28.7319H880.515H882.258V20.0182V11.3045H880.515H878.773V20.0182ZM902.098 20.0182V28.7319H907.461H912.823V27.1232V25.5145H909.203H905.584V18.4095V11.3045H903.841H902.098V20.0182ZM921.135 20.0128V28.7319H927.033H932.932V27.1232V25.5145H928.776H924.62V23.3696V21.2247H927.569H930.519V19.616V18.0073H927.569H924.62V16.2646V14.5219H928.655H932.69L932.61 12.9802L932.529 11.4385L926.832 11.3662L921.135 11.2938V20.0128ZM934.272 11.4876C934.272 11.5884 935.428 13.5218 936.841 15.7841L939.411 19.8978L937.466 22.9071C936.396 24.5624 935.115 26.5502 934.62 27.3243L933.72 28.7319H935.677H937.634L939.372 25.9194C940.327 24.3724 941.189 23.1055 941.286 23.1042C941.383 23.1026 942.215 24.3185 943.134 25.806C944.053 27.2932 944.952 28.5662 945.13 28.6348C945.309 28.7035 946.189 28.723 947.086 28.6785L948.716 28.5978L946.056 24.4421C944.593 22.1564 943.394 20.1174 943.392 19.9109C943.39 19.7045 944.412 17.8781 945.664 15.8522C946.916 13.8264 948.014 11.9745 948.105 11.7367C948.248 11.3651 948.013 11.3045 946.428 11.3045H944.584L942.986 13.9856C942.107 15.4603 941.325 16.6646 941.248 16.6619C941.172 16.6593 940.403 15.4527 939.54 13.9808L937.97 11.3045H936.121C935.104 11.3045 934.272 11.3868 934.272 11.4876ZM950.627 20.0182V28.7319H952.37H954.113V25.685V22.6385L956.594 22.5084C959.977 22.3315 961.411 21.5963 962.495 19.482C963.638 17.2539 962.956 13.9787 961.07 12.6357C959.638 11.6158 958.032 11.3045 954.204 11.3045H950.627V20.0182ZM965.373 19.9895V28.7319H967.116H968.859V25.6486V22.5653H970.133H971.407L973.627 25.6486L975.848 28.7319H977.731C979.165 28.7319 979.568 28.652 979.417 28.3967C979.307 28.2125 978.269 26.7082 977.108 25.0539L974.998 22.0462L976.188 20.8981C978.931 18.2524 978.286 13.8682 974.899 12.1246C973.673 11.4938 973.236 11.4308 969.469 11.3428L965.373 11.2471V19.9895ZM981.371 11.4833C981.272 11.5815 981.192 15.5026 981.192 20.197V28.7319H987.091H992.989V27.1232V25.5145H988.833H984.678V23.3696V21.2247H987.627H990.576V19.616V18.0073H987.627H984.678V16.2646V14.5219H988.699H992.721V12.9132V11.3045H987.135C984.063 11.3045 981.469 11.3849 981.371 11.4833ZM958.851 15.1637C959.886 16.0541 959.903 17.7011 958.888 18.7165C958.278 19.3254 957.891 19.4442 956.145 19.556L954.113 19.6865V17.1043V14.5219H956.108C957.827 14.5219 958.208 14.6109 958.851 15.1637ZM973.569 15.1396C974.595 16.0225 974.627 17.7234 973.635 18.7149C973.024 19.3257 972.639 19.4439 970.892 19.556L968.859 19.6865V17.1043V14.5219H970.855C972.552 14.5219 972.958 14.6144 973.569 15.1396ZM834.629 20.2951C835.138 21.6175 835.639 22.9103 835.743 23.1685C835.914 23.594 835.713 23.6377 833.595 23.6377C831.479 23.6377 831.276 23.5935 831.443 23.1685C831.544 22.9103 832.056 21.5802 832.582 20.2126C833.107 18.8449 833.574 17.7631 833.62 17.8084C833.665 17.854 834.119 18.9731 834.629 20.2951ZM893.351 20.6885C893.887 22.0894 894.324 23.3262 894.324 23.4366C894.323 23.5471 893.358 23.6377 892.178 23.6377C890.999 23.6377 890.03 23.5471 890.027 23.4366C890.009 22.9379 892.061 17.7856 892.21 17.9532C892.302 18.0567 892.815 19.2876 893.351 20.6885Z" fill="#9A8F84"/>
</g>
<line opacity="0.35" x1="1049.69" y1="32" x2="1049.69" y2="8" stroke="#A39C95"/>
<path d="M1084.72 9.00049C1084.71 11.0382 1084.7 13.0758 1084.69 15.1124C1084.69 15.1808 1084.7 15.2491 1084.71 15.3655C1084.78 15.2983 1084.82 15.2652 1084.86 15.2224C1085.69 14.1449 1086.8 13.6194 1088.14 13.5457C1089.43 13.4763 1090.59 13.8095 1091.62 14.5955C1092.27 15.0985 1092.75 15.7447 1093.1 16.4869C1093.52 17.3669 1093.73 18.296 1093.79 19.2647C1093.86 20.2963 1093.78 21.3087 1093.46 22.2955C1093.17 23.2236 1092.7 24.0577 1092.01 24.7529C1091.11 25.6543 1090.01 26.1178 1088.76 26.2459C1088.16 26.3068 1087.57 26.2748 1086.99 26.1167C1086.08 25.87 1085.34 25.3798 1084.78 24.6152C1084.72 24.5308 1084.66 24.4507 1084.55 24.3834V25.9245C1084.37 25.9832 1082.09 26.0003 1081.75 25.9448C1081.74 25.8305 1081.73 25.7087 1081.73 25.5881C1081.73 23.6487 1081.73 21.7082 1081.73 19.7687C1081.73 17.0551 1081.73 14.3403 1081.73 11.6266C1081.73 11.523 1081.72 11.4184 1081.71 11.3073C1081.63 11.2955 1081.57 11.2806 1081.51 11.2806C1080.98 11.2774 1080.44 11.2774 1079.91 11.2774C1079.88 11.2774 1079.84 11.2902 1079.81 11.2977C1079.81 10.5309 1079.81 9.76622 1079.81 9.00049H1084.72ZM1090.8 19.7143C1090.79 19.2305 1090.69 18.5395 1090.39 17.8902C1090.11 17.2879 1089.71 16.7859 1089.11 16.4602C1087.6 15.6251 1085.6 16.2477 1084.92 18.1689C1084.77 18.6153 1084.7 19.082 1084.67 19.5552C1084.62 20.4384 1084.72 21.2949 1085.13 22.0969C1085.83 23.482 1087.11 24 1088.48 23.6348C1089.28 23.4244 1089.86 22.9118 1090.26 22.1984C1090.66 21.4978 1090.8 20.7353 1090.79 19.7143H1090.8Z" fill="#9A8F84"/>
<path d="M1240 15.3015C1239.53 15.2972 1239.06 15.2962 1238.59 15.2866C1238.44 15.2834 1238.4 15.3773 1238.35 15.4916C1237.76 16.9964 1237.17 18.499 1236.57 20.0016C1235.49 22.7185 1234.42 25.4354 1233.34 28.1523C1233.08 28.8112 1232.73 29.4178 1232.23 29.9294C1231.76 30.4217 1231.18 30.74 1230.51 30.8927C1230.43 30.9119 1230.36 30.9632 1230.28 30.9995H1229.05C1228.97 30.961 1228.89 30.9002 1228.8 30.8863C1228.32 30.8126 1227.9 30.6161 1227.5 30.3651C1227.48 30.3523 1227.46 30.3267 1227.43 30.2871C1227.62 29.8877 1227.81 29.4819 1228.01 29.0515C1228.1 29.1038 1228.18 29.1444 1228.25 29.1903C1228.62 29.4274 1229.03 29.5641 1229.47 29.5983C1230.12 29.6474 1230.64 29.3869 1231.08 28.9607C1231.38 28.6767 1231.62 28.3403 1231.79 27.9654C1232.05 27.3908 1232.29 26.8056 1232.54 26.2289C1232.6 26.0997 1232.57 25.9886 1232.52 25.8711C1232.14 24.9228 1231.76 23.9744 1231.38 23.025C1230.63 21.1443 1229.87 19.2626 1229.12 17.3808C1228.87 16.7539 1228.62 16.1281 1228.38 15.498C1228.31 15.341 1228.23 15.2791 1228.06 15.2844C1227.71 15.2951 1227.37 15.2876 1227.02 15.2876C1226.93 15.2876 1226.84 15.2876 1226.74 15.2876V14.005H1231.68C1231.74 14.2197 1231.74 15.0025 1231.68 15.2908H1229.98C1230.04 15.4532 1230.07 15.5696 1230.12 15.6828C1231.1 18.2384 1232.08 20.794 1233.06 23.3507C1233.15 23.5814 1233.2 23.8281 1233.26 24.0663C1233.29 24.1709 1233.33 24.2735 1233.38 24.4262C1233.43 24.3365 1233.45 24.3076 1233.46 24.2745C1233.61 23.5675 1233.92 22.9118 1234.17 22.2401C1235.02 20.023 1235.87 17.808 1236.72 15.592C1236.75 15.5119 1236.77 15.4275 1236.81 15.3101C1236.23 15.2577 1235.69 15.3101 1235.14 15.2769C1235.08 15.0719 1235.07 14.2667 1235.13 13.9975C1235.2 13.9933 1235.28 13.9836 1235.36 13.9836C1236.79 13.9836 1238.22 13.9858 1239.65 13.9901C1239.77 13.9901 1239.88 14.0093 1240 14.0189V15.3004L1240 15.3015Z" fill="#9A8F84"/>
<path d="M1126.42 9.00049C1126.42 9.78117 1126.42 10.5618 1126.42 11.3425C1126.42 11.4483 1126.42 11.5529 1126.42 11.6512C1126.21 11.7152 1123.73 11.7302 1123.41 11.6704C1123.4 11.5828 1123.4 11.4878 1123.39 11.3938C1123.39 10.6751 1123.39 9.95631 1123.39 9.23758C1123.39 9.15855 1123.38 9.07952 1123.38 9.00049C1124.39 9.00049 1125.41 9.00049 1126.42 9.00049Z" fill="#9A8F84"/>
<path d="M1142.53 23.749H1144.24C1144.3 23.9647 1144.32 25.5314 1144.27 25.9255C1144.1 25.9842 1139.93 26.0045 1139.57 25.9426C1139.56 25.839 1139.54 25.7279 1139.53 25.6158C1139.53 25.2687 1139.53 24.9216 1139.53 24.5745C1139.53 22.6789 1139.53 20.7832 1139.53 18.8876C1139.53 18.5501 1139.53 18.2084 1139.47 17.8773C1139.27 16.6203 1138.48 16.2444 1137.45 16.2775C1136.46 16.3095 1135.69 16.7666 1135.07 17.5163C1134.45 18.265 1134.16 19.1428 1134.11 20.0944C1134.06 20.8847 1134.09 21.6782 1134.09 22.4695C1134.08 22.7985 1134.08 23.1285 1134.08 23.4574C1134.08 23.5439 1134.09 23.6304 1134.1 23.7383H1135.75C1135.83 23.9273 1135.86 25.5656 1135.8 25.9276C1135.62 25.9821 1129.64 25.9981 1129.34 25.9415V23.7575H1131.05C1131.06 23.6454 1131.08 23.5695 1131.08 23.4937C1131.08 21.2328 1131.08 18.973 1131.08 16.7122C1131.08 16.6235 1131.07 16.5338 1131.05 16.4484C1131 16.2497 1130.88 16.113 1130.67 16.0821C1130.52 16.0586 1130.36 16.049 1130.2 16.0468C1129.88 16.0415 1129.56 16.0458 1129.21 16.0458C1129.19 15.3014 1129.2 14.5859 1129.2 13.85C1129.29 13.8393 1129.35 13.8244 1129.42 13.8244C1130.44 13.8223 1131.45 13.8191 1132.47 13.8244C1132.64 13.8244 1132.82 13.8511 1132.99 13.8917C1133.58 14.0326 1133.92 14.4524 1133.93 15.0643C1133.94 15.4018 1133.91 15.7393 1133.9 16.0767C1133.9 16.1194 1133.91 16.1622 1133.91 16.2444C1133.97 16.1942 1134.02 16.1718 1134.04 16.1344C1134.84 14.651 1136.1 13.8062 1137.75 13.5756C1138.48 13.4741 1139.21 13.5083 1139.92 13.7165C1141.11 14.0647 1141.87 14.8411 1142.24 16.0212C1142.45 16.709 1142.52 17.4149 1142.53 18.1283C1142.53 19.8819 1142.53 21.6344 1142.53 23.388C1142.53 23.4927 1142.53 23.5973 1142.53 23.7468L1142.53 23.749Z" fill="#9A8F84"/>
<path d="M1094.56 16.0319V13.8404H1099.39C1099.4 13.9611 1099.41 14.0807 1099.41 14.2014C1099.41 16.4527 1099.41 18.7039 1099.42 20.9552C1099.42 21.3365 1099.45 21.7188 1099.5 22.0968C1099.53 22.2966 1099.59 22.4984 1099.68 22.6799C1099.96 23.2502 1100.43 23.5354 1101.06 23.5888C1102.23 23.687 1103.13 23.1968 1103.81 22.2763C1104.35 21.5586 1104.64 20.7405 1104.69 19.852C1104.74 18.956 1104.74 18.0567 1104.75 17.1586C1104.76 16.8916 1104.75 16.6246 1104.75 16.3576C1104.75 16.0597 1104.74 16.049 1104.43 16.0458C1104.38 16.0458 1104.32 16.0458 1104.27 16.0458C1103.91 16.0468 1103.56 16.0479 1103.2 16.049C1103.11 16.049 1103.01 16.049 1102.9 16.049V13.865C1103.07 13.8116 1107.31 13.7934 1107.71 13.8479C1107.72 13.944 1107.73 14.0476 1107.73 14.1501C1107.73 17.087 1107.73 20.0229 1107.73 22.9598C1107.73 23.0313 1107.73 23.1018 1107.74 23.1733C1107.76 23.5792 1107.93 23.7554 1108.33 23.7767C1108.58 23.7896 1108.83 23.781 1109.08 23.7842C1109.18 23.7853 1109.29 23.7928 1109.39 23.7981C1109.45 24.016 1109.46 25.6521 1109.4 25.9607C1109.32 25.9661 1109.24 25.9767 1109.15 25.9767C1108.25 25.9767 1107.35 25.9789 1106.45 25.9714C1106.24 25.9693 1106.03 25.9533 1105.82 25.9063C1105.27 25.7813 1104.93 25.3605 1104.91 24.7999C1104.9 24.4891 1104.91 24.1772 1104.91 23.8654C1104.91 23.7821 1104.9 23.6999 1104.84 23.6091C1104.82 23.6475 1104.78 23.6828 1104.76 23.7244C1104.05 25.0946 1102.91 25.8774 1101.42 26.1754C1100.73 26.3121 1100.04 26.3121 1099.35 26.1807C1097.97 25.918 1097.12 25.07 1096.7 23.7639C1096.49 23.1242 1096.42 22.46 1096.42 21.7893C1096.42 20.0271 1096.42 18.265 1096.42 16.5039C1096.42 16.442 1096.42 16.379 1096.42 16.317C1096.42 16.0629 1096.41 16.0479 1096.15 16.0468C1095.73 16.0447 1095.31 16.049 1094.89 16.049C1094.79 16.049 1094.68 16.0394 1094.56 16.0319H1094.56Z" fill="#9A8F84"/>
<path d="M1156.51 20.3124H1148.1C1148.1 20.4352 1148.09 20.5303 1148.1 20.6232C1148.31 22.1963 1149.41 23.3764 1150.96 23.6733C1151.9 23.8527 1152.82 23.7139 1153.71 23.3561C1154.2 23.1553 1154.67 22.8948 1155.11 22.5904C1155.16 22.5552 1155.21 22.5231 1155.29 22.4729C1155.67 23.1767 1156.05 23.8677 1156.43 24.5832C1156.34 24.6622 1156.25 24.7477 1156.15 24.816C1155.09 25.5561 1153.92 26.0132 1152.64 26.1937C1151.34 26.3763 1150.08 26.261 1148.86 25.7804C1147.31 25.1674 1146.23 24.0663 1145.55 22.5562C1145.04 21.4466 1144.93 20.2804 1145.05 19.0853C1145.16 17.901 1145.55 16.8159 1146.26 15.8569C1147.16 14.6597 1148.36 13.9549 1149.81 13.6665C1150.83 13.4647 1151.84 13.4679 1152.85 13.7562C1154.2 14.1471 1155.24 14.9545 1155.88 16.2189C1156.54 17.4962 1156.69 18.8568 1156.51 20.3114L1156.51 20.3124ZM1153.47 18.5129C1153.5 18.2673 1153.46 18.0238 1153.4 17.7846C1153.06 16.4272 1151.92 15.5664 1150.41 15.921C1149.44 16.1495 1148.8 16.7732 1148.39 17.665C1148.27 17.9298 1148.19 18.2085 1148.16 18.498C1148.41 18.5919 1153.14 18.6037 1153.47 18.5129H1153.47Z" fill="#9A8F84"/>
<path d="M1178.31 17.572H1175.74C1175.74 17.4235 1175.73 17.2772 1175.73 17.1298C1175.72 16.5264 1175.52 16.236 1174.95 16.0448C1174.32 15.8376 1173.69 15.8312 1173.05 15.9999C1172.89 16.0427 1172.74 16.1217 1172.6 16.2135C1172.08 16.5531 1171.98 17.1854 1172.36 17.6766C1172.61 17.9885 1172.93 18.1935 1173.29 18.3409C1173.7 18.5096 1174.12 18.6399 1174.54 18.7927C1175.21 19.0362 1175.88 19.2594 1176.53 19.5381C1176.9 19.6929 1177.24 19.9236 1177.56 20.1554C1178.42 20.7695 1178.79 21.6366 1178.75 22.6726C1178.71 23.8751 1178.16 24.7914 1177.13 25.4183C1176.48 25.8134 1175.77 26.0377 1175.03 26.1595C1173.54 26.403 1172.09 26.278 1170.68 25.7034C1170.09 25.4589 1169.54 25.1278 1169.15 24.5938C1168.86 24.2019 1168.7 23.7715 1168.71 23.277C1168.73 22.9395 1168.71 22.601 1168.71 22.2625C1168.71 22.1834 1168.71 22.1044 1168.71 22.0361C1168.93 21.9517 1170.96 21.9378 1171.25 22.02C1171.25 22.176 1171.27 22.3436 1171.25 22.5092C1171.21 22.9652 1171.44 23.2717 1171.8 23.5045C1172.13 23.7213 1172.51 23.8356 1172.9 23.8804C1173.45 23.9434 1174 23.9819 1174.54 23.8473C1174.8 23.7843 1175.05 23.6775 1175.27 23.5376C1175.84 23.1777 1175.94 22.4643 1175.48 21.9698C1175.31 21.7776 1175.08 21.6174 1174.84 21.5021C1174.45 21.3109 1174.04 21.1646 1173.64 21.0076C1172.97 20.7524 1172.3 20.5163 1171.64 20.2494C1171.13 20.0411 1170.65 19.7592 1170.23 19.3961C1168.96 18.3089 1168.91 16.6621 1169.48 15.5589C1169.83 14.8786 1170.4 14.4407 1171.07 14.1139C1171.73 13.7935 1172.43 13.6355 1173.15 13.5682C1174.18 13.4731 1175.19 13.5596 1176.18 13.879C1176.72 14.053 1177.22 14.2955 1177.65 14.6682C1178.07 15.0324 1178.3 15.4884 1178.3 16.0448C1178.31 16.5425 1178.31 17.0401 1178.31 17.573V17.572Z" fill="#9A8F84"/>
<path d="M1167.2 17.573H1164.67C1164.67 17.3926 1164.66 17.226 1164.67 17.0604C1164.69 16.6226 1164.48 16.3342 1164.1 16.1463C1163.6 15.8931 1163.06 15.8494 1162.52 15.907C1162.25 15.9359 1161.97 15.9957 1161.72 16.1035C1160.98 16.425 1160.84 17.1982 1161.39 17.7866C1161.72 18.1412 1162.15 18.342 1162.59 18.5022C1163.1 18.6859 1163.62 18.8343 1164.14 19.0095C1164.92 19.2764 1165.68 19.5904 1166.37 20.0582C1167.96 21.1251 1168.04 23.3294 1166.95 24.6494C1166.42 25.2848 1165.73 25.6565 1164.97 25.9085C1163.96 26.2428 1162.92 26.3346 1161.87 26.2428C1160.91 26.1595 1159.99 25.9352 1159.14 25.4792C1158.64 25.2154 1158.22 24.8672 1157.93 24.3802C1157.74 24.0759 1157.64 23.7501 1157.63 23.3956C1157.63 22.9598 1157.63 22.5231 1157.63 22.0873C1157.63 22.0628 1157.65 22.0371 1157.65 22.0158C1157.84 21.956 1159.84 21.9442 1160.14 22.003C1160.15 22.0628 1160.17 22.13 1160.17 22.1984C1160.18 22.3319 1160.17 22.4654 1160.17 22.5989C1160.17 22.9449 1160.31 23.2268 1160.6 23.4148C1160.8 23.5462 1161.01 23.67 1161.24 23.7427C1161.96 23.9755 1162.71 23.9894 1163.45 23.8516C1163.68 23.8089 1163.91 23.7096 1164.12 23.591C1164.81 23.1916 1164.89 22.3778 1164.29 21.8438C1164.03 21.6089 1163.72 21.4455 1163.4 21.3237C1162.62 21.0343 1161.84 20.7577 1161.07 20.4651C1160.45 20.2312 1159.86 19.9461 1159.33 19.5413C1158.76 19.0992 1158.33 18.546 1158.17 17.8347C1157.84 16.3748 1158.31 15.1018 1159.63 14.3083C1160.25 13.9313 1160.94 13.7284 1161.66 13.6227C1162.94 13.4336 1164.2 13.5362 1165.42 13.9911C1165.9 14.1737 1166.35 14.4322 1166.72 14.807C1167.02 15.1167 1167.2 15.4895 1167.21 15.9263C1167.23 16.4239 1167.22 16.9227 1167.22 17.4214C1167.22 17.4641 1167.21 17.5068 1167.19 17.5741L1167.2 17.573Z" fill="#9A8F84"/>
<path d="M1119.89 17.5719H1117.35C1117.35 17.4011 1117.35 17.243 1117.36 17.086C1117.38 16.63 1117.16 16.3267 1116.76 16.1334C1116.27 15.892 1115.74 15.8493 1115.2 15.9059C1114.93 15.9347 1114.65 15.9935 1114.4 16.1014C1113.67 16.4228 1113.52 17.1981 1114.07 17.7855C1114.41 18.1465 1114.85 18.3483 1115.3 18.5096C1115.9 18.7232 1116.52 18.9015 1117.12 19.1141C1117.79 19.3512 1118.44 19.6438 1119.04 20.0411C1120.52 21.0247 1120.7 22.9598 1119.9 24.2755C1119.44 25.0338 1118.75 25.4994 1117.94 25.8081C1116.9 26.2043 1115.82 26.3239 1114.72 26.2555C1113.88 26.2032 1113.06 26.0281 1112.29 25.7023C1111.74 25.4727 1111.24 25.1769 1110.85 24.7145C1110.5 24.2969 1110.31 23.8227 1110.31 23.2727C1110.32 22.8562 1110.31 22.4397 1110.31 22.0296C1110.52 21.9538 1112.55 21.941 1112.85 22.0179C1112.85 22.1642 1112.86 22.3222 1112.85 22.4782C1112.83 22.9566 1113.05 23.2909 1113.45 23.5322C1113.79 23.7383 1114.16 23.8515 1114.55 23.8911C1115.08 23.9445 1115.62 23.9722 1116.15 23.8558C1116.43 23.7939 1116.69 23.6871 1116.92 23.5162C1117.46 23.1179 1117.52 22.4205 1117.07 21.9314C1116.8 21.6526 1116.47 21.4764 1116.12 21.3418C1115.53 21.1122 1114.92 20.8976 1114.32 20.6797C1113.68 20.4469 1113.04 20.1948 1112.45 19.8371C1112.05 19.5904 1111.68 19.2946 1111.39 18.9176C1110.87 18.2586 1110.69 17.51 1110.77 16.6877C1110.83 15.9775 1111.1 15.3677 1111.6 14.8614C1112.11 14.3499 1112.73 14.0252 1113.42 13.8298C1115 13.3813 1116.56 13.4325 1118.11 13.9911C1118.5 14.1342 1118.86 14.3456 1119.19 14.6105C1119.65 14.9768 1119.9 15.4446 1119.91 16.0362C1119.91 16.4805 1119.91 16.9258 1119.91 17.3701C1119.91 17.4299 1119.9 17.4908 1119.89 17.5719H1119.89Z" fill="#9A8F84"/>
<path d="M1211.01 15.9903C1211 15.8974 1210.98 15.8034 1210.98 15.7105C1210.97 15.3997 1210.95 15.0878 1210.95 14.7771C1210.95 13.5051 1210.95 12.2321 1210.95 10.9602C1210.95 10.9068 1210.95 10.8534 1210.95 10.8C1210.94 10.5255 1210.93 10.5095 1210.66 10.5084C1210.17 10.5052 1209.67 10.5084 1209.17 10.5084C1209.06 10.5084 1208.96 10.4977 1208.83 10.4903V9.26211C1209.03 9.19483 1212.2 9.18308 1212.52 9.25143C1212.53 9.33901 1212.54 9.43406 1212.54 9.5291C1212.54 14.3606 1212.54 19.191 1212.54 24.0224C1212.54 24.0491 1212.54 24.0758 1212.54 24.1025C1212.54 24.488 1212.7 24.6589 1213.09 24.6675C1213.4 24.6739 1213.71 24.6675 1214.02 24.6739C1214.14 24.676 1214.26 24.6952 1214.39 24.708V25.9447C1214.32 25.9554 1214.25 25.9736 1214.18 25.9746C1213.54 25.9746 1212.88 25.9821 1212.24 25.965C1212.04 25.9597 1211.83 25.9084 1211.64 25.8347C1211.32 25.7066 1211.12 25.4471 1211.08 25.1107C1211.04 24.8052 1211.05 24.4923 1211.05 24.1826C1211.05 24.0448 1211.07 23.9071 1211.09 23.7693C1211.07 23.764 1211.06 23.7576 1211.04 23.7522C1211.01 23.7896 1210.98 23.8238 1210.95 23.8644C1210.25 25.1897 1209.15 25.9714 1207.67 26.2032C1206.14 26.4435 1204.74 26.1145 1203.54 25.0808C1203.03 24.6376 1202.67 24.0747 1202.37 23.4756C1201.95 22.664 1201.75 21.7957 1201.67 20.8922C1201.58 19.8744 1201.62 18.8642 1201.89 17.8742C1202.18 16.8105 1202.66 15.8482 1203.47 15.0761C1204.21 14.3691 1205.1 13.9398 1206.11 13.7785C1206.96 13.6418 1207.81 13.6643 1208.63 13.9814C1209.56 14.3435 1210.31 14.9415 1210.82 15.8119C1210.86 15.8792 1210.9 15.9433 1210.94 16.0084C1210.96 16.0031 1210.99 15.9977 1211.01 15.9924L1211.01 15.9903ZM1211 20.0517C1210.99 19.8563 1210.98 19.6609 1210.97 19.4654C1210.93 18.6463 1210.73 17.8656 1210.35 17.1415C1209.71 15.9604 1208.76 15.2438 1207.39 15.1551C1206.63 15.1049 1205.91 15.2673 1205.26 15.6923C1204.32 16.3064 1203.74 17.1672 1203.47 18.2501C1203.24 19.1493 1203.19 20.0592 1203.31 20.9766C1203.42 21.8053 1203.67 22.5892 1204.15 23.2866C1205.09 24.6418 1206.55 25.1107 1208.06 24.7262C1209.24 24.425 1210.04 23.6604 1210.53 22.5529C1210.88 21.7562 1210.98 20.9114 1211 20.0528V20.0517Z" fill="#9A8F84"/>
<path d="M1226.9 24.6964V25.9523C1226.82 25.9609 1226.74 25.9758 1226.67 25.9758C1226.06 25.9758 1225.46 25.9758 1224.85 25.9705C1224.72 25.9694 1224.58 25.9534 1224.46 25.9256C1223.91 25.8081 1223.58 25.4376 1223.57 24.879C1223.56 24.5159 1223.59 24.1517 1223.6 23.7876C1223.61 23.7213 1223.6 23.6541 1223.6 23.5879C1223.59 23.5814 1223.57 23.574 1223.55 23.5676C1223.49 23.6605 1223.43 23.7523 1223.38 23.8484C1223.01 24.5202 1222.57 25.13 1221.91 25.5401C1220.31 26.5279 1218.67 26.5344 1217.05 25.6266C1215.88 24.973 1215.3 23.6316 1215.47 22.2518C1215.64 20.871 1216.48 20.0219 1217.69 19.4677C1218.51 19.0885 1219.39 18.9048 1220.28 18.7874C1221.22 18.6645 1222.16 18.6528 1223.1 18.6571C1223.23 18.6571 1223.35 18.6421 1223.48 18.6336C1223.49 18.5407 1223.5 18.4712 1223.5 18.4029C1223.46 17.9426 1223.48 17.4802 1223.37 17.0242C1223.1 15.9711 1222.31 15.2642 1221.24 15.1253C1219.81 14.9395 1218.51 15.3165 1217.31 16.0801C1217.25 16.1185 1217.19 16.1559 1217.13 16.1933C1217.12 16.1976 1217.11 16.1954 1217.06 16.2008C1216.84 15.8355 1216.6 15.4543 1216.35 15.0484C1216.44 14.9801 1216.52 14.9053 1216.62 14.8455C1217.57 14.2453 1218.6 13.894 1219.71 13.7626C1220.53 13.6654 1221.34 13.6718 1222.15 13.8673C1223.59 14.2154 1224.5 15.0976 1224.87 16.5329C1225.02 17.1139 1225.08 17.7066 1225.08 18.3036C1225.08 20.1896 1225.09 22.0756 1225.07 23.9616C1225.07 24.4369 1225.2 24.7071 1225.78 24.674C1226.04 24.659 1226.31 24.6708 1226.58 24.674C1226.68 24.675 1226.77 24.6879 1226.9 24.6964ZM1222.23 19.834C1221.39 19.8489 1220.56 19.9109 1219.74 20.0935C1219.13 20.2302 1218.54 20.4235 1218.02 20.8005C1217.69 21.0461 1217.39 21.328 1217.24 21.7243C1216.96 22.4537 1217.03 23.1639 1217.45 23.8185C1217.94 24.5949 1218.69 24.941 1219.59 24.9655C1220.75 24.9976 1221.67 24.4988 1222.39 23.6167C1223.24 22.5786 1223.51 21.3579 1223.49 20.0486C1223.49 19.8575 1223.46 19.8361 1223.27 19.834C1222.92 19.8297 1222.57 19.8329 1222.23 19.834Z" fill="#9A8F84"/>
<path d="M1200.04 19.9578C1199.99 22.1653 1199.13 23.9701 1197.27 25.2229C1196.15 25.98 1194.88 26.3229 1193.53 26.2705C1190.27 26.1456 1188 23.8633 1187.52 21.0738C1187.19 19.1867 1187.6 17.4609 1188.82 15.9711C1189.87 14.7002 1191.23 13.9794 1192.86 13.7615C1194.08 13.5992 1195.27 13.7444 1196.38 14.2538C1198.43 15.1872 1199.64 16.7731 1200 18.9998C1200.02 19.096 1200.04 19.1931 1200.04 19.2903C1200.04 19.5125 1200.04 19.7346 1200.04 19.9567L1200.04 19.9578ZM1198.45 19.8147C1198.43 19.6299 1198.41 19.3448 1198.36 19.065C1197.93 16.4453 1195.38 14.5838 1192.57 15.2641C1191.09 15.623 1189.46 17.0049 1189.14 18.971C1188.87 20.6039 1189.21 22.0681 1190.32 23.3144C1191.99 25.1791 1194.78 25.3734 1196.69 23.7694C1197.89 22.7644 1198.42 21.454 1198.45 19.8158V19.8147Z" fill="#9A8F84"/>
<path d="M1128.15 23.7641V25.9288C1127.96 25.9822 1122.1 26.0025 1121.69 25.9481C1121.64 25.2315 1121.67 24.5095 1121.66 23.7513H1123.41C1123.42 23.6242 1123.44 23.5291 1123.44 23.4351C1123.44 21.0856 1123.44 18.7361 1123.44 16.3866C1123.44 16.3599 1123.44 16.3332 1123.44 16.3065C1123.43 16.0758 1123.41 16.0491 1123.17 16.047C1122.75 16.0427 1122.33 16.047 1121.91 16.0491C1121.8 16.0491 1121.69 16.0491 1121.58 16.0491C1121.52 15.7917 1121.52 14.052 1121.58 13.832H1126.4C1126.41 13.9452 1126.42 14.0478 1126.42 14.1503C1126.42 17.1491 1126.42 20.149 1126.42 23.1479C1126.42 23.2461 1126.42 23.3433 1126.42 23.4416C1126.43 23.7374 1126.43 23.7459 1126.72 23.7481C1127.1 23.7513 1127.49 23.7481 1127.87 23.7502C1127.95 23.7502 1128.04 23.7577 1128.15 23.763V23.7641Z" fill="#9A8F84"/>
<path d="M1181.53 15.2918H1179.39C1179.35 14.8486 1179.35 14.4299 1179.38 13.9846H1181.54C1181.55 13.6898 1181.55 13.4186 1181.55 13.1473C1181.56 12.8718 1181.55 12.5963 1181.55 12.3196V10.6814H1183.12V13.9664C1183.24 13.975 1183.33 13.9867 1183.42 13.9867C1184.21 13.9867 1185.01 13.9857 1185.8 13.9835C1185.9 13.9835 1186.01 13.9835 1186.1 13.9835C1186.17 14.2089 1186.17 14.981 1186.12 15.279H1183.15C1183.14 15.3794 1183.12 15.4552 1183.12 15.5299C1183.12 17.6029 1183.12 19.6758 1183.12 21.7476C1183.12 22.1673 1183.19 22.5817 1183.34 22.9779C1183.69 23.9604 1184.39 24.5425 1185.44 24.6621C1185.73 24.6963 1186.04 24.6674 1186.33 24.6674C1186.4 24.8864 1186.41 25.6126 1186.36 26.0013C1186.31 26.0173 1186.25 26.0472 1186.2 26.0526C1185.09 26.1369 1184.03 25.9906 1183.09 25.3349C1182.35 24.8148 1181.94 24.0683 1181.71 23.2118C1181.58 22.7291 1181.54 22.2335 1181.54 21.7327C1181.55 19.6865 1181.54 17.6402 1181.54 15.5951C1181.54 15.5075 1181.53 15.421 1181.53 15.2907L1181.53 15.2918Z" fill="#9A8F84"/>
</g>
<defs>
<clipPath id="clip0_2093_21795">
<rect width="1240" height="40" fill="white"/>
</clipPath>
<clipPath id="clip1_2093_21795">
<rect width="168.844" height="40" fill="white"/>
</clipPath>
<clipPath id="clip2_2093_21795">
<rect width="170.305" height="40" fill="white" transform="translate(559.684)"/>
</clipPath>
<clipPath id="clip3_2093_21795">
<rect width="231.35" height="40" fill="white" transform="translate(789.223)"/>
</clipPath>
</defs>
</svg>
