<svg width="18" height="18" viewBox="0 0 18 18" fill="none" xmlns="http://www.w3.org/2000/svg">
<path d="M7.95 10.3501L6.31875 8.71887C6.18125 8.58137 6.0125 8.51262 5.8125 8.51262C5.6125 8.51262 5.4375 8.58762 5.2875 8.73762C5.15 8.87512 5.08125 9.05012 5.08125 9.26262C5.08125 9.47512 5.15 9.65012 5.2875 9.78762L7.425 11.9251C7.5625 12.0626 7.7375 12.1314 7.95 12.1314C8.1625 12.1314 8.3375 12.0626 8.475 11.9251L12.7313 7.66887C12.8688 7.53137 12.9375 7.36262 12.9375 7.16262C12.9375 6.96262 12.8625 6.78762 12.7125 6.63762C12.575 6.50012 12.4 6.43137 12.1875 6.43137C11.975 6.43137 11.8 6.50012 11.6625 6.63762L7.95 10.3501ZM9 16.5001C7.9625 16.5001 6.9875 16.3031 6.075 15.9091C5.1625 15.5151 4.36875 14.9809 3.69375 14.3064C3.01875 13.6314 2.4845 12.8376 2.091 11.9251C1.6975 11.0126 1.5005 10.0376 1.5 9.00012C1.5 7.96262 1.697 6.98762 2.091 6.07512C2.485 5.16262 3.01925 4.36887 3.69375 3.69387C4.36875 3.01887 5.1625 2.48437 6.075 2.09037C6.9875 1.69637 7.9625 1.49962 9 1.50012C10.0375 1.50012 11.0125 1.69712 11.925 2.09112C12.8375 2.48512 13.6313 3.01937 14.3063 3.69387C14.9813 4.36887 15.5158 5.16262 15.9098 6.07512C16.3038 6.98762 16.5005 7.96262 16.5 9.00012C16.5 10.0376 16.303 11.0126 15.909 11.9251C15.515 12.8376 14.9808 13.6314 14.3063 14.3064C13.6313 14.9814 12.8375 15.5159 11.925 15.9099C11.0125 16.3039 10.0375 16.5006 9 16.5001Z" fill="#263238"/>
</svg>
