<svg width="32" height="32" viewBox="0 0 32 32" fill="none" xmlns="http://www.w3.org/2000/svg">
<path fill-rule="evenodd" clip-rule="evenodd" d="M22.2266 17.5067C24.0533 18.7467 25.3333 20.4267 25.3333 22.6667V26.6667H29.3333C30.0666 26.6667 30.6666 26.0667 30.6666 25.3334V22.6667C30.6666 19.76 25.9066 18.04 22.2266 17.5067Z" fill="#263238"/>
<path d="M12 16C14.9455 16 17.3333 13.6122 17.3333 10.6667C17.3333 7.72119 14.9455 5.33337 12 5.33337C9.05446 5.33337 6.66665 7.72119 6.66665 10.6667C6.66665 13.6122 9.05446 16 12 16Z" fill="#263238"/>
<path fill-rule="evenodd" clip-rule="evenodd" d="M20 16C22.9466 16 25.3333 13.6134 25.3333 10.6667C25.3333 7.72004 22.9466 5.33337 20 5.33337C19.3733 5.33337 18.7866 5.46671 18.2266 5.65337C19.3333 7.02671 20 8.77337 20 10.6667C20 12.56 19.3333 14.3067 18.2266 15.68C18.7866 15.8667 19.3733 16 20 16Z" fill="#263238"/>
<path fill-rule="evenodd" clip-rule="evenodd" d="M12 17.3334C8.43998 17.3334 1.33331 19.12 1.33331 22.6667V25.3334C1.33331 26.0667 1.93331 26.6667 2.66665 26.6667H21.3333C22.0666 26.6667 22.6666 26.0667 22.6666 25.3334V22.6667C22.6666 19.12 15.56 17.3334 12 17.3334Z" fill="#263238"/>
</svg>
