<svg width="32" height="32" viewBox="0 0 32 32" fill="none" xmlns="http://www.w3.org/2000/svg">
<path d="M8.33333 28H13.6667C13.6667 29.4667 12.4667 30.6667 11 30.6667C9.53333 30.6667 8.33333 29.4667 8.33333 28ZM5.66667 25.3334C5.66667 26.0667 6.26667 26.6667 7 26.6667H15C15.7333 26.6667 16.3333 26.0667 16.3333 25.3334C16.3333 24.6 15.7333 24 15 24H7C6.26667 24 5.66667 24.6 5.66667 25.3334ZM21 14C21 19.0934 17.4533 21.8134 15.9733 22.6667H6.02667C4.54667 21.8134 1 19.0934 1 14C1 8.48004 5.48 4.00004 11 4.00004C16.52 4.00004 21 8.48004 21 14ZM27.4933 11.16L25.6667 12L27.4933 12.84L28.3333 14.6667L29.1733 12.84L31 12L29.1733 11.16L28.3333 9.33337L27.4933 11.16ZM24.3333 9.33337L25.5867 6.58671L28.3333 5.33337L25.5867 4.08004L24.3333 1.33337L23.08 4.08004L20.3333 5.33337L23.08 6.58671L24.3333 9.33337Z" fill="#263238"/>
</svg>
