<svg width="298" height="402" viewBox="0 0 298 402" fill="none" xmlns="http://www.w3.org/2000/svg">
<g opacity="0.07">
<path d="M273.272 479.572C266.078 472.854 258.825 466.136 251.631 459.417C234.271 443.306 216.97 427.134 199.61 411.022C178.683 391.58 157.815 372.138 136.888 352.698C118.755 335.813 100.622 318.929 82.4889 302.103C73.6899 293.898 65.0101 285.515 56.0325 277.488C55.9136 277.37 55.7947 277.251 55.6758 277.132C57.9944 282.72 60.3131 288.369 62.6317 293.958V276.953C54.7246 284.861 46.7574 292.828 38.8507 300.735H73.5117C85.4027 300.735 97.4112 301.151 109.302 300.616C162.037 298.178 211.68 267.738 236.236 220.65C248.542 197.107 254.964 170.352 253.596 143.777C252.229 117.498 244.322 91.4572 229.875 69.3999C215.666 47.759 196.106 29.2089 172.979 17.3187C151.279 6.08184 127.438 0.136191 103.003 0.0774841H26.2498H23.8122C11.3863 0.0774841 -0.563467 11.0164 0.0311934 23.859C0.625724 36.7603 10.4948 47.6405 23.8122 47.6405H98.9601C105.976 47.6405 112.991 47.8189 119.947 48.7107C117.866 48.4134 115.726 48.1161 113.645 47.8783C124.822 49.3647 135.702 52.3374 146.106 56.6776C144.203 55.9047 142.301 55.0723 140.398 54.2994C150.565 58.6395 160.078 64.2282 168.817 70.9459C167.212 69.6974 165.607 68.4488 164.001 67.2003C172.444 73.7997 179.994 81.3508 186.593 89.7925C185.345 88.1872 184.096 86.582 182.848 84.9767C189.566 93.7165 195.154 103.229 199.494 113.396C198.721 111.494 197.889 109.591 197.116 107.689C201.456 118.093 204.428 128.973 205.915 140.15C205.617 138.069 205.32 135.929 205.082 133.848C206.509 144.787 206.509 155.905 205.082 166.845C205.38 164.764 205.677 162.624 205.915 160.543C204.428 171.72 201.456 182.6 197.116 193.004C197.889 191.102 198.721 189.199 199.494 187.297C195.154 197.463 189.565 206.976 182.848 215.716C184.096 214.111 185.345 212.506 186.593 210.9C179.994 219.343 172.443 226.893 164.001 233.492C165.607 232.244 167.212 230.995 168.817 229.747C160.078 236.465 150.565 242.053 140.398 246.393C142.301 245.62 144.203 244.788 146.106 244.015C135.702 248.355 124.822 251.328 113.645 252.814C115.726 252.517 117.866 252.22 119.947 251.982C109.365 253.35 98.7232 253.052 88.0812 253.052H48.7238H38.8547C26.0135 253.052 15.0737 263.933 15.0737 276.834C15.0737 282.363 14.9548 287.892 15.0737 293.422C15.1926 300.497 18.1058 306.977 23.2187 311.734C27.0237 315.241 30.8286 318.809 34.6336 322.316C51.2211 337.715 67.8085 353.173 84.3949 368.572C106.392 389.023 128.39 409.476 150.387 429.987C170.185 448.418 190.042 466.848 209.84 485.279C219.65 494.435 229.4 503.65 239.269 512.687C239.388 512.806 239.566 512.925 239.685 513.044C244.263 517.265 250.148 520 256.51 520C262.337 520 269.293 517.384 273.336 513.044C277.498 508.525 280.589 502.58 280.292 496.218C279.935 490.213 277.914 483.911 273.276 479.571L273.272 479.572Z" fill="#566510"/>
<path d="M23.8054 47.6421H55.1963H130.641H221.544H300.378C313.161 47.6421 325.943 47.8205 338.666 47.6421H339.201C351.627 47.6421 363.576 36.7032 362.982 23.8606C362.387 10.9593 352.518 0.0790874 339.201 0.0790874H307.81H232.365H141.462H62.6281C49.8456 0.0790874 37.0631 -0.0992713 24.3404 0.0790874H23.8054C11.3794 0.0790874 -0.570303 11.018 0.0243574 23.8606C0.618888 36.7619 10.488 47.6421 23.8054 47.6421Z" fill="#566510"/>
<path d="M23.8052 174.223H55.1961H130.641H221.543H300.378C313.16 174.223 325.943 174.401 338.666 174.223H339.201C351.627 174.223 363.576 163.284 362.982 150.441C362.387 137.54 352.518 126.66 339.201 126.66H307.81H232.365H141.462H62.628C49.8455 126.66 37.063 126.482 24.3403 126.66H23.8052C11.3793 126.66 -0.570425 137.599 0.0242354 150.441C0.618766 163.283 10.4879 174.223 23.8052 174.223Z" fill="#566510"/>
</g>
</svg>
